<svg width="168" height="38" viewBox="0 0 168 38" fill="none" xmlns="http://www.w3.org/2000/svg">
<g clip-path="url(#clip0_1961_3291)">
<path d="M15.6162 5C15.6162 5 12.1354 8.30698 3.2018 8.72524C3.2018 8.72524 1.1923 23.4005 9.84035 30.4974C9.84035 30.4974 12.8083 29.6308 14.6264 28.3143C14.6264 28.3143 7.06382 23.8835 8.05213 13.0613C8.05213 13.0613 14.6892 12.3542 20.0823 7.34558L15.6162 5Z" fill="#B31942"/>
<path d="M17.0216 11.0364C17.0216 11.0364 20.021 12.4175 23.4045 12.9953C23.4045 12.9953 25.6383 25.9358 10.9587 31.3311C10.9587 31.3311 12.3627 33.0057 15.5863 33.9987C15.5863 33.9987 30.2016 30.8812 28.0949 8.78858C28.0949 8.78858 24.17 8.53131 21.3935 7.69629C21.3935 7.69779 17.9143 10.7159 17.0216 11.0364Z" fill="#053D6A"/>
<path d="M11.05 16.0388V15.0729L15.6058 11.9585L20.2708 15.0518V16.0388H11.05Z" fill="#053D6A"/>
<path d="M13.1641 16.4121H11.355V17.3329H13.1641V16.4121Z" fill="#053D6A"/>
<path d="M20.486 22.2568H10.8108V23.1776H20.486V22.2568Z" fill="#053D6A"/>
<path d="M13.1536 20.9634H11.3445V21.8842H13.1536V20.9634Z" fill="#053D6A"/>
<path d="M12.6198 17.2227H11.8782V21.0171H12.6198V17.2227Z" fill="#053D6A"/>
<path d="M15.4427 16.4121H13.6335V17.3329H15.4427V16.4121Z" fill="#053D6A"/>
<path d="M15.4322 20.9634H13.623V21.8842H15.4322V20.9634Z" fill="#053D6A"/>
<path d="M14.8986 17.2227H14.157V21.0171H14.8986V17.2227Z" fill="#053D6A"/>
<path d="M17.7215 16.4121H15.9124V17.3329H17.7215V16.4121Z" fill="#053D6A"/>
<path d="M17.711 20.9634H15.9019V21.8842H17.711V20.9634Z" fill="#053D6A"/>
<path d="M17.1772 17.2227H16.4355V21.0171H17.1772V17.2227Z" fill="#053D6A"/>
<path d="M19.8863 16.4121H18.0771V17.3329H19.8863V16.4121Z" fill="#053D6A"/>
<path d="M19.876 20.9634H18.0669V21.8842H19.876V20.9634Z" fill="#053D6A"/>
<path d="M19.3422 17.2227H18.6006V21.0171H19.3422V17.2227Z" fill="#053D6A"/>
<path d="M49.3441 12.4955L45.8484 17.1099C45.8484 17.1099 45.9605 17.5643 44.4579 17.6019C44.4579 17.6019 40.098 17.1866 38.3322 19.8707C38.3322 19.8707 35.7007 24.258 39.8737 26.5644C39.8737 26.5644 41.3016 27.3212 43.67 27.3588H55.1319V32.5404H42.3168C42.3168 32.5404 36.2659 32.3885 33.147 28.0028C33.147 28.0028 29.0502 23.0859 33.147 16.9594C33.147 16.9594 35.6648 12.7242 42.3168 12.2322C42.3168 12.2307 47.203 11.7402 49.3441 12.4955Z" fill="#053D6A"/>
<path d="M46.9399 17.5644L50.8483 12.4219H73.3969L70.3154 16.8467C70.3154 16.8467 69.677 17.7916 68.2491 17.5659H62.4987V32.5421H56.2982V17.602L46.9399 17.5644Z" fill="#053D6A"/>
<path d="M63.626 28.379V32.5391H68.2864L77.4189 19.5293L82.9809 27.4718H74.5243L70.8417 32.5391H93.8418L80.5005 13.442C80.5005 13.442 78.3953 10.3501 74.6753 13.1396L63.626 28.379Z" fill="#053D6A"/>
<path d="M107.986 32.471H104.342V26.5957H98.9628V32.471H95.3191V19.1362H98.9628V24.017H104.342V19.1362H107.986V32.471Z" fill="#053D6A"/>
<path d="M117.116 31.4059C116.932 31.5368 116.705 31.6963 116.432 31.8813C116.16 32.0664 115.905 32.2123 115.664 32.3207C115.329 32.4636 114.981 32.5704 114.62 32.6381C114.26 32.7073 113.864 32.7404 113.435 32.7404C112.422 32.7404 111.575 32.4455 110.891 31.8543C110.208 31.263 109.867 30.5077 109.867 29.5884C109.867 28.8542 110.041 28.2539 110.389 27.7875C110.737 27.3226 111.231 26.954 111.869 26.6862C112.502 26.4168 113.287 26.2258 114.223 26.1129C115.159 26.0001 116.13 25.9158 117.135 25.8617V25.8075C117.135 25.2523 116.894 24.8687 116.415 24.6565C115.933 24.4444 115.226 24.3391 114.29 24.3391C113.726 24.3391 113.125 24.4324 112.487 24.6219C111.848 24.81 111.389 24.9544 111.111 25.0567H110.799V22.6299C111.159 22.5396 111.745 22.4343 112.558 22.3125C113.372 22.1906 114.185 22.1289 115.002 22.1289C116.944 22.1289 118.346 22.4118 119.209 22.976C120.072 23.5402 120.504 24.4248 120.504 25.6315V32.4741H117.116V31.4059ZM117.116 29.8412V27.7514C116.654 27.7875 116.154 27.8371 115.616 27.8988C115.078 27.962 114.67 28.0342 114.392 28.117C114.049 28.2178 113.789 28.3652 113.608 28.5593C113.427 28.7534 113.337 29.0077 113.337 29.3221C113.337 29.5297 113.357 29.6997 113.394 29.8306C113.432 29.9615 113.527 30.0864 113.678 30.2053C113.823 30.3241 113.998 30.4129 114.2 30.4686C114.402 30.5257 114.719 30.5528 115.15 30.5528C115.492 30.5528 115.837 30.4881 116.189 30.3572C116.542 30.2278 116.85 30.0548 117.116 29.8412Z" fill="#053D6A"/>
<path d="M130.628 25.4858H130.324C130.179 25.4377 129.946 25.4031 129.623 25.379C129.301 25.3549 129.032 25.3429 128.818 25.3429C128.333 25.3429 127.903 25.373 127.531 25.4317C127.159 25.4918 126.758 25.5926 126.329 25.7356V32.4714H122.904V22.4136H126.329V23.891C127.08 23.2817 127.733 22.8769 128.289 22.6768C128.844 22.4767 129.355 22.3774 129.823 22.3774C129.943 22.3774 130.079 22.3805 130.23 22.3865C130.381 22.3925 130.514 22.4015 130.628 22.4136V25.4858Z" fill="#053D6A"/>
<path d="M142.946 27.3046C142.946 28.8874 142.483 30.1768 141.557 31.1743C140.632 32.1718 139.478 32.6698 138.093 32.6698C137.499 32.6698 136.978 32.6096 136.529 32.4907C136.08 32.3719 135.654 32.1989 135.249 31.9717L135.107 32.4727H131.824V18.5361H135.249V23.462C135.774 23.0678 136.309 22.7488 136.855 22.5036C137.401 22.2584 138.032 22.1365 138.746 22.1365C140.092 22.1365 141.128 22.5954 141.855 23.5116C142.583 24.4279 142.946 25.6917 142.946 27.3046ZM139.425 27.3708C139.425 26.4771 139.264 25.788 138.942 25.3051C138.621 24.8221 138.047 24.5814 137.22 24.5814C136.898 24.5814 136.566 24.628 136.226 24.7198C135.885 24.8116 135.56 24.9455 135.251 25.117V30.1602C135.497 30.2445 135.731 30.3001 135.952 30.3302C136.173 30.3603 136.438 30.3754 136.747 30.3754C137.65 30.3754 138.322 30.1256 138.764 29.6246C139.205 29.1236 139.425 28.3728 139.425 27.3708Z" fill="#053D6A"/>
<path d="M155.567 27.4477C155.567 29.1012 155.055 30.4041 154.034 31.3565C153.013 32.3089 151.578 32.7858 149.731 32.7858C147.885 32.7858 146.449 32.3089 145.428 31.3565C144.407 30.4041 143.896 29.1012 143.896 27.4477C143.896 25.7822 144.41 24.4747 145.437 23.5254C146.466 22.576 147.897 22.1006 149.731 22.1006C151.591 22.1006 153.028 22.579 154.043 23.5344C155.06 24.4883 155.567 25.7942 155.567 27.4477ZM151.364 29.8926C151.585 29.6353 151.751 29.3269 151.862 28.9658C151.972 28.6047 152.028 28.1052 152.028 27.4658C152.028 26.8745 151.971 26.3795 151.857 25.9793C151.744 25.5791 151.585 25.2601 151.383 25.0209C151.181 24.7757 150.938 24.6026 150.652 24.5018C150.368 24.401 150.06 24.3499 149.731 24.3499C149.402 24.3499 149.109 24.392 148.853 24.4747C148.598 24.559 148.353 24.726 148.118 24.9758C147.909 25.209 147.743 25.5279 147.62 25.9342C147.496 26.3404 147.435 26.8504 147.435 27.4658C147.435 28.0149 147.488 28.4919 147.596 28.8951C147.704 29.2983 147.862 29.6218 148.07 29.867C148.272 30.1002 148.514 30.2702 148.797 30.3771C149.078 30.4839 149.399 30.538 149.76 30.538C150.069 30.538 150.365 30.4884 150.646 30.3906C150.929 30.2913 151.168 30.1258 151.364 29.8926Z" fill="#053D6A"/>
<path d="M165 25.4858H164.696C164.551 25.4377 164.318 25.4031 163.995 25.379C163.674 25.3549 163.405 25.3429 163.191 25.3429C162.705 25.3429 162.276 25.373 161.903 25.4317C161.531 25.4918 161.13 25.5926 160.701 25.7356V32.4714H157.276V22.4136H160.701V23.891C161.452 23.2817 162.105 22.8769 162.661 22.6768C163.216 22.4767 163.728 22.3774 164.196 22.3774C164.315 22.3774 164.451 22.3805 164.602 22.3865C164.753 22.3925 164.886 22.4015 165 22.4136V25.4858Z" fill="#053D6A"/>
</g>
<defs>
<clipPath id="clip0_1961_3291">
<rect width="162" height="29" fill="white" transform="translate(3 5)"/>
</clipPath>
</defs>
</svg>
