<svg width="70" height="70" viewBox="0 0 70 70" fill="none" xmlns="http://www.w3.org/2000/svg">
<circle cx="35" cy="35" r="35" fill="#003B6A"/>
<g clip-path="url(#clip0_393_15298)">
<path d="M35.1875 30.7812C31.3105 30.7812 28.1562 33.9355 28.1562 37.8125C28.1562 41.6895 31.3105 44.8438 35.1875 44.8438C39.0645 44.8438 42.2188 41.6895 42.2188 37.8125C42.2188 33.9355 39.0645 30.7812 35.1875 30.7812ZM38.6295 42.8361L38.172 42.0434L37.3602 42.5122L37.8162 43.3016C37.153 43.6203 36.4259 43.8233 35.6572 43.8823V42.5H34.7197V43.8823C33.9509 43.8233 33.2234 43.6208 32.5606 43.3016L33.0167 42.5122L32.2048 42.0434L31.7473 42.8361C31.1281 42.4105 30.5914 41.8737 30.1653 41.2541L30.958 40.7966L30.4892 39.9847L29.6998 40.4408C29.3811 39.7775 29.1781 39.0505 29.1191 38.2817H30.5V37.3442H29.1177C29.1767 36.5755 29.3792 35.848 29.6984 35.1852L30.4878 35.6413L30.9566 34.8294L30.1639 34.3719C30.5895 33.7527 31.1263 33.2159 31.7459 32.7898L32.2034 33.5825L33.0153 33.1137L32.5592 32.3244C33.2225 32.0056 33.9495 31.8027 34.7183 31.7436V33.125H35.6558V31.7427C36.4245 31.8017 37.152 32.0042 37.8148 32.3234L37.3588 33.1128L38.1706 33.5816L38.6281 32.7889C39.2473 33.2145 39.7841 33.7513 40.2102 34.3709L39.4175 34.8284L39.8862 35.6403L40.6756 35.1842C40.9944 35.8475 41.1973 36.5745 41.2564 37.3433H39.875V38.2808H41.2573C41.1983 39.0495 40.9958 39.777 40.6766 40.4398L39.8872 39.9838L39.4184 40.7956L40.2111 41.2531C39.7855 41.8737 39.2487 42.4105 38.6295 42.8361Z" fill="white"/>
<path d="M35.6562 34.0625H34.7188V37.8125C34.7188 37.9775 34.8055 38.1298 34.9461 38.2142L37.2898 39.6205L37.7722 38.8166L35.6562 37.5472V34.0625Z" fill="white"/>
<path d="M46.25 20.5628C46.108 20.4555 45.9177 20.4391 45.7592 20.5183C45.6003 20.598 45.5 20.7602 45.5 20.9378V22.8128H27.6875V23.7503H45.9688C46.228 23.7503 46.4375 23.5408 46.4375 23.2816V21.8753L50.8386 25.1758L46.4375 28.8433V27.0316C46.4375 26.7724 46.228 26.5628 45.9688 26.5628H35.1875C28.9845 26.5628 23.9375 31.6099 23.9375 37.8128C23.9375 44.0158 28.9845 49.0628 35.1875 49.0628V48.5941L35.1973 49.0628L35.255 49.0624V48.1249L35.1856 48.1253C29.5002 48.1244 24.875 43.4988 24.875 37.8128C24.875 32.1264 29.5011 27.5003 35.1875 27.5003H45.5V29.8441C45.5 30.026 45.6055 30.1914 45.77 30.2683C45.9341 30.3457 46.1291 30.3208 46.2687 30.2041L51.8937 25.5166C52.0034 25.4247 52.0658 25.2878 52.062 25.1444C52.0583 25.001 51.9894 24.8674 51.8745 24.7816L46.25 20.5628Z" fill="white"/>
<path d="M39.9877 47.9888C40.2839 47.8481 40.5745 47.6948 40.852 47.5331L40.3795 46.7227C40.125 46.8713 39.8583 47.0119 39.5859 47.1417L39.9877 47.9888Z" fill="white"/>
<path d="M41.1328 46.2398L41.6747 47.0053C41.9391 46.8178 42.1992 46.6167 42.4472 46.4072L41.842 45.6914C41.6147 45.8831 41.3761 46.0673 41.1328 46.2398Z" fill="white"/>
<path d="M45.1543 40.4723L46.0599 40.7142C46.1438 40.4016 46.2141 40.08 46.2704 39.7589L45.3465 39.5977C45.2949 39.892 45.2307 40.1859 45.1543 40.4723Z" fill="white"/>
<path d="M45.4609 38.7078L46.3947 38.7884C46.4228 38.465 46.4369 38.1364 46.4369 37.8125H45.4994C45.4994 38.1102 45.4867 38.4111 45.4609 38.7078Z" fill="white"/>
<path d="M43.6504 43.7048L44.4187 44.243C44.6034 43.9795 44.7801 43.7016 44.9437 43.4161L44.1309 42.9492C43.9809 43.2103 43.8191 43.4644 43.6504 43.7048Z" fill="white"/>
<path d="M44.543 42.1578L45.3933 42.5525C45.5302 42.2572 45.6563 41.9534 45.7664 41.6488L44.8856 41.3281C44.7844 41.6075 44.6691 41.8869 44.543 42.1578Z" fill="white"/>
<path d="M37.2021 48.8839L37.0348 47.9609C36.746 48.0134 36.447 48.0542 36.1465 48.0823L36.2337 49.0161C36.5609 48.9856 36.8866 48.9411 37.2021 48.8839Z" fill="white"/>
<path d="M38.7618 47.4883C38.481 47.5919 38.1941 47.6837 37.9082 47.762L38.1552 48.6667C38.4674 48.5809 38.7805 48.4811 39.0857 48.3681L38.7618 47.4883Z" fill="white"/>
<path d="M42.502 45.0842L43.1666 45.7461C43.394 45.5173 43.6157 45.2741 43.8257 45.0233L43.1062 44.4219C42.9135 44.652 42.7105 44.8747 42.502 45.0842Z" fill="white"/>
<path d="M23.9375 22.8125H24.875V23.75H23.9375V22.8125Z" fill="white"/>
<path d="M25.8125 22.8125H26.75V23.75H25.8125V22.8125Z" fill="white"/>
</g>
<defs>
<clipPath id="clip0_393_15298">
<rect width="30" height="30" fill="white" transform="translate(23 20)"/>
</clipPath>
</defs>
</svg>
