<svg width="70" height="70" viewBox="0 0 70 70" fill="none" xmlns="http://www.w3.org/2000/svg">
<path d="M57.7775 36.8888C57.0949 36.8888 56.64 37.3439 56.64 38.0263V52.8146C56.64 53.4972 56.1849 53.9521 55.5024 53.9521H14.5502C13.8677 53.9521 13.4127 53.4971 13.4127 52.8146V38.0263C13.4127 37.3438 12.9576 36.8888 12.2752 36.8888C11.5927 36.8888 11.1376 37.3439 11.1376 38.0263V52.8146C11.1376 54.7485 12.6164 56.2273 14.5503 56.2273H55.5024C57.4363 56.2273 58.9151 54.7485 58.9151 52.8146V38.0263C58.9151 37.3438 58.46 36.8888 57.7775 36.8888Z" fill="#003B6A"/>
<path d="M56.64 20.963H13.4127C11.4788 20.963 10 22.4418 10 24.3757V31.6561C10 33.2486 11.1375 34.6137 12.6164 34.955L30.4761 38.9364V42.5766C30.4761 43.2591 30.9312 43.7141 31.6136 43.7141H38.439C39.1215 43.7141 39.5765 43.259 39.5765 42.5766V38.9364L57.4362 34.955C58.9151 34.6137 60.0526 33.2486 60.0526 31.656V24.3756C60.0526 22.4418 58.5738 20.963 56.64 20.963ZM37.3015 41.439H32.7513V36.8888H37.3015V41.439ZM57.7775 31.656C57.7775 32.2248 57.4362 32.6798 56.8674 32.7935L39.5765 36.6613V35.7512C39.5765 35.0687 39.1214 34.6137 38.439 34.6137H31.6136C30.9311 34.6137 30.4761 35.0688 30.4761 35.7512V36.6613L13.1852 32.7936C12.6164 32.6798 12.2751 32.2249 12.2751 31.6561V24.3757C12.2751 23.6931 12.7302 23.2382 13.4127 23.2382H56.64C57.3225 23.2382 57.7775 23.6932 57.7775 24.3757V31.656Z" fill="#003B6A"/>
<path d="M40.7141 13H29.3385C27.4046 13 25.9258 14.4788 25.9258 16.4127V17.5502C25.9258 18.2327 26.3809 18.6877 27.0634 18.6877C27.7458 18.6877 28.2009 18.2327 28.2009 17.5502V16.4127C28.2009 15.7301 28.656 15.2751 29.3384 15.2751H40.714C41.3966 15.2751 41.8516 15.7302 41.8516 16.4127V17.5502C41.8516 18.2327 42.3066 18.6877 42.9891 18.6877C43.6716 18.6877 44.1266 18.2327 44.1266 17.5502V16.4127C44.1268 14.4788 42.648 13 40.7141 13Z" fill="#003B6A"/>
</svg>
