<svg width="70" height="70" viewBox="0 0 70 70" fill="none" xmlns="http://www.w3.org/2000/svg">
<path d="M56.0606 27.2002C56.0432 27.1011 56.0065 27.0063 55.9525 26.9214C55.8985 26.8365 55.8282 26.7631 55.7458 26.7054C55.6634 26.6476 55.5704 26.6067 55.4722 26.5849C55.374 26.5632 55.2724 26.561 55.1733 26.5785L51.4051 27.2423C51.3059 27.2597 51.2112 27.2964 51.1262 27.3505C51.0413 27.4046 50.9678 27.4749 50.9101 27.5574C50.8523 27.6399 50.8114 27.733 50.7897 27.8313C50.768 27.9296 50.7659 28.0313 50.7835 28.1304L50.9473 29.0576L48.8037 29.432L47.5137 29.2345V17.8908C47.5137 17.0785 47.1911 16.2995 46.6168 15.7252C46.0425 15.1509 45.2636 14.8282 44.4514 14.8282H39.0923V13.2969C39.0923 12.6877 38.8503 12.1035 38.4196 11.6728C37.9889 11.242 37.4047 11 36.7956 11H32.2021C31.593 11 31.0088 11.242 30.5781 11.6728C30.1474 12.1035 29.9054 12.6877 29.9054 13.2969V14.8282H24.5463C23.7342 14.8282 22.9552 15.1509 22.3809 15.7252C21.8066 16.2995 21.484 17.0785 21.484 17.8908V29.2368L20.1887 29.4351L18.0512 29.0584L18.2142 28.1304C18.2318 28.0313 18.2297 27.9296 18.208 27.8313C18.1863 27.733 18.1454 27.6399 18.0876 27.5574C18.0299 27.4749 17.9564 27.4046 17.8715 27.3505C17.7865 27.2964 17.6918 27.2597 17.5926 27.2423L13.8282 26.5785C13.7291 26.5609 13.6274 26.563 13.5291 26.5847C13.4308 26.6064 13.3377 26.6473 13.2552 26.7051C13.1727 26.7628 13.1024 26.8363 13.0484 26.9212C12.9943 27.0062 12.9575 27.101 12.9402 27.2002L10.0118 43.7862C9.99419 43.8854 9.9963 43.9871 10.018 44.0854C10.0397 44.1837 10.0806 44.2768 10.1384 44.3593C10.1961 44.4418 10.2696 44.5121 10.3545 44.5662C10.4395 44.6202 10.5343 44.657 10.6335 44.6744L14.4024 45.3382C14.5015 45.3557 14.6031 45.3535 14.7013 45.3317C14.7995 45.31 14.8925 45.269 14.9749 45.2113C15.0573 45.1536 15.1276 45.0801 15.1816 44.9952C15.2356 44.9103 15.2723 44.8156 15.2897 44.7165L15.3594 44.3054L15.9918 44.4171C16.5746 45.701 17.4226 46.847 18.4799 47.7798C18.4394 48.4711 18.6362 49.1556 19.0377 49.7198C19.4392 50.284 20.0214 50.6941 20.6878 50.8822C20.3296 51.4771 20.1856 52.1766 20.2795 52.8646C20.3734 53.5526 20.6996 54.1879 21.2041 54.6651C21.7085 55.1422 22.3609 55.4326 23.0531 55.4881C23.7452 55.5435 24.4355 55.3607 25.0095 54.97C25.0856 55.4784 25.2899 55.959 25.6031 56.3667C25.9162 56.7743 26.328 57.0956 26.7996 57.3001C27.2712 57.5047 27.787 57.5859 28.2986 57.536C28.8103 57.4861 29.3007 57.3068 29.7239 57.015C29.7956 57.4839 29.9763 57.9294 30.2517 58.3157C30.527 58.702 30.8892 59.0182 31.3091 59.2388C31.7289 59.4595 32.1948 59.5784 32.669 59.586C33.1433 59.5937 33.6127 59.4898 34.0395 59.2828V59.2874L34.3457 59.4911C34.6811 59.7131 35.0569 59.8669 35.4518 59.9437C35.8466 60.0205 36.2527 60.0187 36.6468 59.9385C37.0409 59.8583 37.4154 59.7012 37.7489 59.4763C38.0823 59.2513 38.3682 58.9629 38.5901 58.6274C38.9253 58.1171 39.0967 57.5166 39.0816 56.9063C39.33 56.9739 39.586 57.0094 39.8434 57.0119C40.2479 57.0132 40.6487 56.9341 41.0224 56.7793C41.3962 56.6244 41.7355 56.397 42.0207 56.11C42.3059 55.8231 42.5313 55.4824 42.6839 55.1077C42.8365 54.733 42.9132 54.3317 42.9095 53.9272C43.1532 53.9913 43.404 54.0247 43.6559 54.0267C44.06 54.0267 44.46 53.9468 44.833 53.7915C45.206 53.6362 45.5446 53.4086 45.8292 53.1218C46.1139 52.8351 46.339 52.4949 46.4916 52.1207C46.6441 51.7466 46.7212 51.346 46.7183 50.9419C47.185 51.0636 47.6739 51.0723 48.1447 50.9673C48.6154 50.8623 49.0544 50.6467 49.4252 50.3383C49.796 50.03 50.0881 49.6377 50.2772 49.1939C50.4662 48.7502 50.5469 48.2678 50.5125 47.7867C51.5708 46.8524 52.4188 45.7042 53.0006 44.4179L53.6383 44.3092L53.7103 44.7165C53.7277 44.8157 53.7644 44.9105 53.8185 44.9954C53.8726 45.0804 53.9429 45.1539 54.0253 45.2116C54.1078 45.2694 54.2009 45.3103 54.2992 45.332C54.3976 45.3537 54.4992 45.3558 54.5984 45.3382L58.3665 44.6744C58.4657 44.657 58.5605 44.6202 58.6455 44.5662C58.7304 44.5121 58.8039 44.4418 58.8616 44.3593C58.9194 44.2768 58.9603 44.1837 58.982 44.0854C59.0037 43.9871 59.0058 43.8854 58.9882 43.7862L56.0606 27.2002ZM31.4365 13.2969C31.4365 13.0939 31.5172 12.8991 31.6608 12.7555C31.8043 12.6119 31.9991 12.5313 32.2021 12.5313H36.7956C36.9986 12.5313 37.1934 12.6119 37.3369 12.7555C37.4805 12.8991 37.5612 13.0939 37.5612 13.2969V14.8282H31.4365V13.2969ZM23.0152 17.8908C23.0152 17.4846 23.1765 17.0952 23.4636 16.808C23.7508 16.5208 24.1402 16.3595 24.5463 16.3595H44.4514C44.8575 16.3595 45.2469 16.5208 45.5341 16.808C45.8212 17.0952 45.9825 17.4846 45.9825 17.8908V20.1877C45.9825 20.7969 45.7406 21.3811 45.3098 21.8119C44.8791 22.2426 44.2949 22.4846 43.6858 22.4846V21.719C43.6858 21.5159 43.6051 21.3212 43.4616 21.1776C43.318 21.034 43.1233 20.9533 42.9202 20.9533H39.8579C39.6549 20.9533 39.4601 21.034 39.3166 21.1776C39.173 21.3212 39.0923 21.5159 39.0923 21.719V22.4846H29.9054V21.719C29.9054 21.5159 29.8247 21.3212 29.6811 21.1776C29.5376 21.034 29.3428 20.9533 29.1398 20.9533H26.0775C25.8744 20.9533 25.6797 21.034 25.5361 21.1776C25.3926 21.3212 25.3119 21.5159 25.3119 21.719V22.4846C24.7028 22.4846 24.1186 22.2426 23.6879 21.8119C23.2571 21.3811 23.0152 20.7969 23.0152 20.1877V17.8908ZM42.1546 22.4846V24.0159H40.6235V22.4846H42.1546ZM28.3742 22.4846V24.0159H26.8431V22.4846H28.3742ZM23.0152 23.2303C23.6739 23.737 24.4809 24.0131 25.3119 24.0159V24.7815C25.3119 24.9846 25.3926 25.1793 25.5361 25.3229C25.6797 25.4665 25.8744 25.5472 26.0775 25.5472H29.1398C29.3428 25.5472 29.5376 25.4665 29.6811 25.3229C29.8247 25.1793 29.9054 24.9846 29.9054 24.7815V24.0159H39.0923V24.7815C39.0923 24.9846 39.173 25.1793 39.3166 25.3229C39.4601 25.4665 39.6549 25.5472 39.8579 25.5472H42.9202C43.1233 25.5472 43.318 25.4665 43.4616 25.3229C43.6051 25.1793 43.6858 24.9846 43.6858 24.7815V24.0159C44.5168 24.0131 45.3238 23.737 45.9825 23.2303V29.0002L40.1641 28.1105C38.8989 27.9199 37.6057 28.084 36.4281 28.5845L34.4989 29.4068L32.575 28.5868C31.3956 28.0841 30.0993 27.9205 28.832 28.1144L23.0152 29.0033V23.2303ZM13.9147 43.6982L11.6532 43.2985L14.3113 28.2154L16.5736 28.6143L13.9147 43.6982ZM20.3586 48.9222C20.0977 48.6111 19.971 48.2092 20.0063 47.8048C20.0416 47.4003 20.2361 47.0264 20.5469 46.7654L23.4799 44.3054C23.7909 44.0442 24.193 43.9174 24.5976 43.9527C25.0022 43.988 25.3762 44.1826 25.6373 44.4937C25.8984 44.8048 26.0252 45.2069 25.9899 45.6115C25.9546 46.0161 25.76 46.3901 25.4489 46.6513L22.516 49.1128C22.3619 49.242 22.1838 49.3395 21.9919 49.3999C21.8 49.4602 21.5982 49.4822 21.3978 49.4645C21.1975 49.4468 21.0026 49.3897 20.8243 49.2967C20.646 49.2037 20.4877 49.0764 20.3586 48.9222ZM24.2952 53.6148C24.1411 53.7441 23.9631 53.8418 23.7713 53.9023C23.5795 53.9627 23.3776 53.9849 23.1772 53.9673C22.9769 53.9498 22.7819 53.893 22.6035 53.8001C22.4251 53.7072 22.2667 53.5801 22.1374 53.426C22.0081 53.272 21.9105 53.0939 21.85 52.9021C21.7895 52.7102 21.7674 52.5084 21.7849 52.308C21.8024 52.1076 21.8592 51.9126 21.9521 51.7342C22.045 51.5558 22.1721 51.3974 22.3261 51.2681L25.8478 48.315C26.1605 48.0702 26.5561 47.9565 26.9511 47.9979C27.3461 48.0393 27.7095 48.2325 27.9647 48.5368C28.2199 48.8411 28.3469 49.2327 28.3189 49.6288C28.2909 50.025 28.1101 50.3948 27.8146 50.6602L24.2952 53.6148ZM29.0074 55.6575C28.8533 55.7868 28.6753 55.8844 28.4835 55.9448C28.2917 56.0053 28.0898 56.0274 27.8895 56.0098C27.6892 55.9922 27.4942 55.9354 27.3159 55.8425C27.1375 55.7496 26.9792 55.6225 26.85 55.4684C26.7207 55.3143 26.6231 55.1363 26.5626 54.9445C26.5022 54.7526 26.4801 54.5508 26.4977 54.3504C26.5153 54.1501 26.5721 53.9552 26.665 53.7768C26.7579 53.5984 26.885 53.4401 27.0391 53.3108L29.3855 51.3424C29.6972 51.0865 30.0972 50.9639 30.4987 51.0012C30.9002 51.0385 31.2708 51.2327 31.53 51.5416C31.7892 51.8506 31.916 52.2493 31.8831 52.6512C31.8501 53.0531 31.6599 53.4258 31.3539 53.6883L29.0074 55.6575ZM33.7187 57.7041C33.4071 57.9614 33.0065 58.0852 32.604 58.0483C32.2016 58.0115 31.83 57.817 31.5704 57.5073C31.3107 57.1976 31.184 56.7978 31.2179 56.3951C31.2517 55.9923 31.4434 55.6193 31.7512 55.3574L34.0969 53.3889C34.2509 53.2596 34.4289 53.1619 34.6207 53.1014C34.8125 53.0408 35.0143 53.0187 35.2146 53.0362C35.415 53.0537 35.6099 53.1104 35.7883 53.2033C35.9667 53.2961 36.125 53.4232 36.2543 53.5773C36.3836 53.7313 36.4812 53.9094 36.5417 54.1012C36.6022 54.293 36.6242 54.4949 36.6067 54.6952C36.5891 54.8956 36.5323 55.0905 36.4394 55.2689C36.3465 55.4473 36.2193 55.6056 36.0652 55.7348L33.7187 57.7041ZM37.3116 57.7852C37.1087 58.0946 36.7997 58.319 36.4428 58.4163C36.0859 58.5136 35.7057 58.4771 35.3739 58.3135L37.0498 56.9078C37.2083 56.7753 37.3529 56.627 37.4815 56.4653C37.554 56.6832 37.5764 56.9146 37.5469 57.1424C37.5175 57.3701 37.4371 57.5883 37.3116 57.7806V57.7852ZM48.7486 48.8226C48.6376 48.9904 48.4947 49.1346 48.3279 49.2471C48.1612 49.3595 47.974 49.4381 47.7769 49.4782C47.5798 49.5183 47.3768 49.5192 47.1794 49.4808C46.982 49.4424 46.7941 49.3655 46.6264 49.2545L40.2407 45.0304C40.157 44.9697 40.0619 44.9267 39.961 44.9038C39.8602 44.8809 39.7558 44.8786 39.6541 44.8972C39.5524 44.9157 39.4555 44.9546 39.3693 45.0117C39.283 45.0687 39.2092 45.1426 39.1523 45.2289C39.0954 45.3152 39.0566 45.4121 39.0381 45.5138C39.0197 45.6156 39.0221 45.72 39.0451 45.8208C39.0681 45.9216 39.1113 46.0167 39.172 46.1003C39.2328 46.184 39.3098 46.2544 39.3986 46.3075L44.508 49.6893C44.8465 49.9138 45.0819 50.2636 45.1626 50.6617C45.2432 51.0598 45.1624 51.4736 44.9379 51.8121C44.7134 52.1506 44.3637 52.386 43.9656 52.4667C43.5676 52.5473 43.1538 52.4665 42.8153 52.242L37.7066 48.8609C37.6215 48.8039 37.5256 48.7648 37.4249 48.7461C37.251 48.7133 37.0712 48.7418 36.916 48.8266C36.7607 48.9115 36.6396 49.0475 36.5733 49.2115C36.507 49.3755 36.4996 49.5575 36.5522 49.7264C36.6049 49.8953 36.7144 50.0407 36.8622 50.138L40.6901 52.6746C41.0265 52.8998 41.26 53.2492 41.3395 53.6462C41.4191 54.0432 41.3381 54.4555 41.1144 54.793C40.8908 55.1305 40.5425 55.3656 40.1459 55.447C39.7493 55.5284 39.3366 55.4493 38.9982 55.2272L38.1254 54.6499C38.1465 54.0882 38.0112 53.5316 37.7346 53.0422C37.458 52.5528 37.051 52.1498 36.5588 51.8781C36.0667 51.6065 35.5088 51.4768 34.9473 51.5036C34.3859 51.5304 33.8428 51.7126 33.3788 52.0299C33.3194 51.6318 33.181 51.2497 32.9717 50.9059C32.7624 50.5622 32.4864 50.2638 32.16 50.0283C31.8336 49.7929 31.4634 49.6251 31.0712 49.535C30.679 49.4448 30.2727 49.434 29.8763 49.5033C29.8897 48.7786 29.6404 48.0735 29.1745 47.5183C28.7085 46.9631 28.0574 46.5953 27.3415 46.4828C27.5655 45.8507 27.5752 45.1623 27.369 44.5241C27.1629 43.8859 26.7523 43.3333 26.2008 42.9517C25.6493 42.5701 24.9875 42.3808 24.3176 42.4129C23.6478 42.445 23.0071 42.6968 22.4946 43.1293L19.5616 45.5909C19.3566 45.7674 19.1763 45.9709 19.0257 46.1957C18.2595 45.4057 17.6556 44.4732 17.2481 43.4509C17.1998 43.3293 17.1212 43.2221 17.0197 43.1396C16.9183 43.057 16.7974 43.0018 16.6685 42.9793L15.6266 42.7955L17.7832 30.5644L20.0447 30.9633C20.1271 30.9775 20.2112 30.9775 20.2935 30.9633L29.0632 29.628C30.0483 29.4769 31.0559 29.6042 31.9724 29.9955L32.542 30.2382L29.4851 31.5398C28.7983 31.8336 28.2127 32.3223 27.8008 32.9455L24.9199 37.289C24.5866 37.7992 24.4683 38.4203 24.5908 39.0173C24.7132 39.6143 25.0665 40.1387 25.5737 40.4764C26.4208 41.0346 27.4546 41.2341 28.4485 41.0313C29.4424 40.8285 30.3154 40.2399 30.8761 39.3945L32.1906 37.4146L34.9858 36.8427C35.287 37.7715 35.7988 38.6183 36.4811 39.3169C37.1634 40.0154 37.9978 40.5469 38.9193 40.8699C39.2459 40.9864 39.5809 41.0778 39.9214 41.1433L48.316 46.7018C48.6544 46.9258 48.8901 47.275 48.9712 47.6727C49.0523 48.0704 48.9722 48.484 48.7486 48.8226ZM52.3276 42.9808C52.1983 43.0033 52.0769 43.0588 51.9751 43.1418C51.8734 43.2247 51.7947 43.3325 51.7466 43.4547C51.3388 44.4818 50.7327 45.4184 49.9628 46.211C49.7472 45.9008 49.4753 45.6338 49.1612 45.424L42.6538 41.1188C43.4994 40.9498 44.3049 40.6208 45.0271 40.1495L46.2298 39.3608C46.3996 39.2492 46.518 39.0746 46.5591 38.8756C46.6001 38.6766 46.5604 38.4694 46.4488 38.2997C46.3371 38.1299 46.1626 38.0115 45.9636 37.9704C45.7646 37.9293 45.5574 37.969 45.3877 38.0807L44.1888 38.8693C43.4954 39.3248 42.7054 39.6125 41.8816 39.7096C41.0577 39.8068 40.2225 39.7107 39.4422 39.429C38.7241 39.1788 38.0753 38.7623 37.5489 38.2136C37.0224 37.6648 36.6331 36.9994 36.4128 36.2715C36.3653 36.1184 36.3255 35.9553 36.2918 35.7937C36.2504 35.5956 36.1322 35.4219 35.963 35.3107C35.7939 35.1995 35.5875 35.1598 35.3892 35.2004L31.5759 35.9813C31.3775 36.0219 31.2032 36.1395 31.0913 36.3082L29.6068 38.5508C29.2702 39.0577 28.7466 39.4106 28.1505 39.5324C27.5544 39.6542 26.9343 39.535 26.4258 39.2008C26.2562 39.0878 26.1379 38.9125 26.0966 38.7128C26.0553 38.5132 26.0944 38.3053 26.2053 38.1343L29.0847 33.7916C29.3316 33.4187 29.682 33.1259 30.0929 32.9494L37.0299 29.994C37.9469 29.6047 38.9539 29.4772 39.9391 29.6257L48.7049 30.9656C48.7869 30.9782 48.8703 30.9782 48.9522 30.9656L51.2183 30.569L53.3704 42.8001L52.3276 42.9808ZM55.0837 43.6967L52.4249 28.6136L54.6872 28.2147L57.3453 43.2978L55.0837 43.6967Z" fill="#003B6A"/>
</svg>
