<svg width="56" height="56" viewBox="0 0 56 56" fill="none" xmlns="http://www.w3.org/2000/svg">
<path d="M49.0431 24.4086C48.8639 19.3038 46.7967 14.5303 43.1668 10.9004C39.3622 7.09501 34.3056 5 28.9295 5C18.0713 5 9.19918 13.6425 8.81674 24.4086C7.15975 25.145 6 26.8034 6 28.731V34.0413C6 36.6489 8.12133 38.7709 10.7297 38.7709C12.4174 38.7709 13.7899 37.3984 13.7899 35.7107V27.0608C13.7899 25.4762 12.5746 24.1841 11.0295 24.0306C11.5998 14.6509 19.408 7.19372 28.9295 7.19372C33.7206 7.19372 38.2258 9.06132 41.6166 12.4521C44.7302 15.5657 46.5525 19.6241 46.8267 24.0313C45.283 24.1863 44.0699 25.4777 44.0699 27.0608V35.71C44.0699 37.3077 45.3042 38.6079 46.8676 38.7431V40.9288C46.8676 43.3902 44.8648 45.3923 42.4034 45.3923H39.0975C38.9351 44.9287 38.6806 44.5002 38.3238 44.1448C37.6986 43.5167 36.865 43.1708 35.9773 43.1708H32.5697C32.0805 43.1708 31.611 43.2747 31.181 43.475C30.0081 44.0139 29.2506 45.1971 29.2506 46.4892C29.2506 47.3769 29.5964 48.2105 30.2231 48.8343C30.8498 49.4624 31.6834 49.8083 32.5697 49.8083H35.9773C37.39 49.8083 38.6353 48.895 39.0997 47.5861H42.4034C46.075 47.5861 49.0614 44.5997 49.0614 40.9288V38.3527C50.7081 37.6119 51.8591 35.9593 51.8591 34.0398V28.7295C51.8591 26.8034 50.6993 25.145 49.0431 24.4086ZM11.5955 27.0608V35.71C11.5955 36.1875 11.2072 36.5765 10.7289 36.5765C9.33081 36.5765 8.19299 35.4387 8.19299 34.0405V28.7303C8.19299 27.3314 9.33081 26.1943 10.7289 26.1943C11.2072 26.1943 11.5955 26.5833 11.5955 27.0608ZM37.0778 46.7246C36.9688 47.2409 36.5052 47.616 35.9765 47.616H32.5689C32.2691 47.616 31.9876 47.499 31.7726 47.284C31.5606 47.0727 31.4436 46.7905 31.4436 46.4907C31.4436 46.0526 31.7002 45.6526 32.1024 45.4676C32.2457 45.4004 32.4029 45.366 32.5689 45.366H35.9765C36.2763 45.366 36.5579 45.4823 36.7721 45.6973C36.9842 45.9086 37.1012 46.1908 37.1012 46.4907C37.1019 46.5711 37.0931 46.6515 37.0778 46.7246ZM49.6654 34.0405C49.6654 35.4387 48.5275 36.5765 47.1294 36.5765C46.6519 36.5765 46.2629 36.1882 46.2629 35.71V27.0608C46.2629 26.5833 46.6512 26.1943 47.1294 26.1943C48.5275 26.1943 49.6654 27.3321 49.6654 28.7303V34.0405Z" fill="#003B6A"/>
<path d="M36.0321 34.4184C38.5951 34.4184 40.6799 32.3329 40.6799 29.7707V20.3004C40.6799 19.0616 40.1958 17.8946 39.3169 17.0156C38.4379 16.1367 37.2716 15.6526 36.0321 15.6526H21.827C19.264 15.6526 17.1792 17.7374 17.1792 20.3004V29.7707C17.1792 32.3337 19.264 34.4184 21.827 34.4184H21.914V36.8725C21.914 37.8085 22.472 38.6392 23.3348 38.9894C23.6134 39.1013 23.903 39.1569 24.1897 39.1569C24.7871 39.1569 25.3692 38.92 25.7955 38.479L29.878 34.4184H36.0321ZM28.6532 32.5435L24.235 36.9376C24.2153 36.958 24.2006 36.9734 24.1589 36.9551C24.1085 36.9346 24.1085 36.9017 24.1085 36.8725V33.3216C24.1085 32.7161 23.6178 32.2247 23.0116 32.2247H21.8277C20.4742 32.2247 19.3737 31.1235 19.3737 29.7707V20.3004C19.3737 18.9468 20.4742 17.8463 21.8277 17.8463H36.0328C36.6866 17.8463 37.3016 18.1022 37.7666 18.5666C38.2317 19.0317 38.4869 19.6474 38.4869 20.3004V29.7707C38.4869 31.1242 37.3856 32.2247 36.0328 32.2247H29.4268C29.1365 32.2247 28.8586 32.3395 28.6532 32.5435Z" fill="#003B6A"/>
<path d="M23.601 23.5927C22.7089 23.5927 21.9828 24.3195 21.9828 25.2109C21.9828 26.1023 22.7096 26.8291 23.601 26.8291C24.4939 26.8291 25.2207 26.1023 25.2207 25.2109C25.2207 24.3195 24.4946 23.5927 23.601 23.5927Z" fill="#003B6A"/>
<path d="M28.9289 23.5927C28.0367 23.5927 27.3106 24.3195 27.3106 25.2109C27.3106 26.1023 28.0375 26.8291 28.9289 26.8291C29.8224 26.8291 30.5486 26.1023 30.5486 25.2109C30.5486 24.3195 29.8224 23.5927 28.9289 23.5927Z" fill="#003B6A"/>
<path d="M34.2566 23.5927C33.3645 23.5927 32.6384 24.3195 32.6384 25.2109C32.6384 26.1023 33.3653 26.8291 34.2566 26.8291C35.1495 26.8291 35.8763 26.1023 35.8763 25.2109C35.8763 24.3195 35.1495 23.5927 34.2566 23.5927Z" fill="#003B6A"/>
</svg>
