<svg width="40" height="40" viewBox="0 0 40 40" fill="none" xmlns="http://www.w3.org/2000/svg">
<circle cx="20" cy="20" r="20" fill="#003B6A"/>
<g clip-path="url(#clip0_1361_4967)">
<path d="M21.4858 30.9648H17.9558C17.3662 30.9648 16.8865 30.4861 16.8865 29.8977V21.9511H14.8271C14.2374 21.9511 13.7578 21.4723 13.7578 20.884V17.4789C13.7578 16.8904 14.2374 16.4117 14.8271 16.4117H16.8865V14.7065C16.8865 13.0158 17.4185 11.5774 18.4247 10.547C19.4354 9.51186 20.8479 8.96484 22.5095 8.96484L25.2016 8.96921C25.7902 8.97021 26.269 9.44891 26.269 10.0364V13.1979C26.269 13.7864 25.7896 14.2651 25.2001 14.2651L23.3875 14.2658C22.8347 14.2658 22.694 14.3764 22.6639 14.4103C22.6143 14.4665 22.5552 14.6255 22.5552 15.0644V16.4115H25.0639C25.2528 16.4115 25.4357 16.458 25.593 16.5456C25.9322 16.7348 26.1431 17.0925 26.1431 17.479L26.1417 20.8841C26.1417 21.4723 25.6621 21.951 25.0725 21.951H22.5552V29.8977C22.5552 30.4861 22.0754 30.9648 21.4858 30.9648ZM18.1788 29.6751H21.2628V21.3737C21.2628 20.9808 21.5832 20.6612 21.9767 20.6612H24.8495L24.8506 17.7014H21.9765C21.583 17.7014 21.2628 17.3819 21.2628 16.9889V15.0644C21.2628 14.5605 21.3141 13.9875 21.6952 13.5568C22.1556 13.0361 22.8813 12.976 23.3872 12.976L24.9768 12.9754V10.2586L22.5085 10.2546C19.8382 10.2546 18.1788 11.9606 18.1788 14.7065V16.9889C18.1788 17.3817 17.8586 17.7014 17.4651 17.7014H15.0501V20.6612H17.4651C17.8586 20.6612 18.1788 20.9808 18.1788 21.3737V29.6751Z" fill="white"/>
</g>
<defs>
<clipPath id="clip0_1361_4967">
<rect width="22" height="22" fill="white" transform="translate(9 9.00781)"/>
</clipPath>
</defs>
</svg>
