<svg width="26" height="26" viewBox="0 0 26 26" fill="none" xmlns="http://www.w3.org/2000/svg">
<path d="M22.4 0.40918H2.8C1.26 0.40918 0 1.66904 0 3.20887V22.8067C0 24.3479 1.26 25.6064 2.8 25.6064H12.6V15.8075H9.8V12.3429H12.6V9.47318C12.6 6.44391 14.2968 4.31615 17.8724 4.31615L20.3966 4.31895V7.96554H18.7208C17.3292 7.96554 16.8 9.00983 16.8 9.97852V12.3443H20.3952L19.6 15.8075H16.8V25.6064H22.4C23.94 25.6064 25.2 24.3479 25.2 22.8067V3.20887C25.2 1.66904 23.94 0.40918 22.4 0.40918Z" fill="#003B6A"/>
</svg>
