<svg width="70" height="70" viewBox="0 0 70 70" fill="none" xmlns="http://www.w3.org/2000/svg">
<circle cx="35" cy="35" r="35" fill="#003B6A"/>
<path d="M23.4194 37.5364C23.9087 37.4754 23.9205 38.0652 24.0379 38.3947C24.0745 38.5134 24.1566 38.6128 24.2664 38.6711C24.3761 38.7293 24.5045 38.7417 24.6233 38.7055C25.1027 38.5443 24.9308 38.0716 24.8188 37.7108C24.7534 37.369 24.5606 37.0648 24.2794 36.8597C23.9982 36.6546 23.6496 36.5641 23.3041 36.6063C23.243 36.6131 23.1812 36.6072 23.1225 36.5888C23.0639 36.5704 23.0097 36.54 22.9634 36.4995C22.9172 36.459 22.8799 36.4094 22.8539 36.3537C22.8279 36.2979 22.8138 36.2374 22.8125 36.176V33.8231C22.8128 33.7614 22.8262 33.7004 22.8519 33.6442C22.8776 33.588 22.9149 33.5379 22.9613 33.4972C23.0078 33.4565 23.0624 33.4262 23.1215 33.4082C23.1806 33.3902 23.2428 33.385 23.3041 33.3929C23.6333 33.4338 23.9661 33.3534 24.2404 33.1668C24.5147 32.9802 24.7117 32.7002 24.7945 32.379C25.04 31.4152 25.4225 30.4917 25.9302 29.6366C26.0974 29.3504 26.1557 29.0135 26.0945 28.6877C26.0333 28.362 25.8566 28.0693 25.597 27.8633C25.5473 27.8263 25.5061 27.7791 25.4763 27.7249C25.4465 27.6706 25.4286 27.6106 25.424 27.5489C25.4194 27.4872 25.4282 27.4252 25.4496 27.3671C25.4711 27.309 25.5048 27.2562 25.5484 27.2123L27.2124 25.5484C27.2562 25.5046 27.3089 25.4707 27.367 25.4491C27.4251 25.4275 27.4872 25.4187 27.549 25.4233C27.6108 25.4279 27.6708 25.4458 27.7251 25.4758C27.7793 25.5058 27.8265 25.5471 27.8633 25.597C28.0695 25.8567 28.3625 26.0334 28.6886 26.0944C29.0146 26.1555 29.3517 26.0969 29.638 25.9293C30.4913 25.4227 31.4128 25.0409 32.3744 24.7955C32.6974 24.7149 32.9796 24.5185 33.1674 24.2435C33.3551 23.9686 33.4354 23.6343 33.3929 23.3041C33.3849 23.2428 33.39 23.1805 33.4079 23.1214C33.4259 23.0622 33.4562 23.0076 33.4969 22.961C33.5376 22.9145 33.5878 22.8772 33.644 22.8516C33.7003 22.826 33.7613 22.8127 33.8232 22.8125H36.176C36.2378 22.8127 36.2988 22.8261 36.3551 22.8517C36.4113 22.8773 36.4614 22.9146 36.5021 22.9611C36.5428 23.0077 36.5732 23.0623 36.5911 23.1214C36.6091 23.1805 36.6142 23.2428 36.6063 23.3041C36.5632 23.6335 36.6425 23.9672 36.8293 24.2418C37.016 24.5165 37.2971 24.713 37.6193 24.7941C38.5099 25.0217 39.3667 25.3655 40.1676 25.8167C40.2211 25.8473 40.2801 25.8671 40.3413 25.8749C40.4024 25.8826 40.4645 25.8783 40.524 25.862C40.5835 25.8457 40.6391 25.8179 40.6878 25.7801C40.7365 25.7422 40.7773 25.6952 40.8077 25.6416C40.8382 25.588 40.8578 25.5289 40.8654 25.4677C40.873 25.4065 40.8685 25.3444 40.852 25.285C40.8356 25.2256 40.8076 25.17 40.7696 25.1214C40.7317 25.0728 40.6845 25.0322 40.6308 25.0019C39.7569 24.509 38.8217 24.1336 37.8495 23.8854C37.7498 23.8595 37.663 23.7981 37.6053 23.7127C37.5476 23.6274 37.5229 23.5239 37.5359 23.4217C37.5609 23.2284 37.5444 23.032 37.4875 22.8456C37.4305 22.6592 37.3345 22.4871 37.2058 22.3407C37.0771 22.1944 36.9187 22.0771 36.7411 21.9968C36.5635 21.9165 36.3709 21.875 36.176 21.875H33.8232C33.6284 21.8749 33.4359 21.9164 33.2585 21.9965C33.081 22.0766 32.9226 22.1937 32.7939 22.3398C32.6652 22.4859 32.5691 22.6578 32.512 22.8439C32.4549 23.0301 32.4381 23.2263 32.4627 23.4194C32.4754 23.5225 32.4503 23.6267 32.3919 23.7125C32.3336 23.7984 32.246 23.8602 32.1455 23.8863C31.0964 24.1542 30.091 24.5705 29.1596 25.1227C29.0746 25.1734 28.9746 25.1931 28.8767 25.1786C28.7788 25.1641 28.6889 25.1162 28.6222 25.0431C28.5043 24.8854 28.354 24.7548 28.1814 24.6601C28.0088 24.5653 27.8179 24.5086 27.6216 24.4937C27.4253 24.4788 27.2281 24.506 27.0432 24.5736C26.8582 24.6412 26.6899 24.7476 26.5495 24.8856L24.8856 26.5495C24.7461 26.6891 24.6383 26.8571 24.5698 27.0422C24.5012 27.2273 24.4734 27.4249 24.4883 27.6217C24.5032 27.8185 24.5605 28.0097 24.6561 28.1823C24.7518 28.355 24.8837 28.5048 25.0426 28.6218C25.1159 28.6882 25.164 28.7778 25.1787 28.8756C25.1935 28.9733 25.174 29.0732 25.1237 29.1583C24.5704 30.0912 24.1534 31.0986 23.8855 32.1496C23.8595 32.2494 23.7981 32.3362 23.7128 32.3939C23.6274 32.4516 23.524 32.4763 23.4218 32.4632C23.2285 32.4382 23.0321 32.4547 22.8457 32.5117C22.6592 32.5686 22.4871 32.6646 22.3407 32.7933C22.1944 32.922 22.0771 33.0804 21.9968 33.258C21.9165 33.4356 21.875 33.6282 21.875 33.8231V36.176C21.8753 36.3706 21.917 36.5629 21.9973 36.7402C22.0776 36.9174 22.1946 37.0756 22.3406 37.2043C22.4867 37.3329 22.6584 37.429 22.8443 37.4863C23.0303 37.5435 23.2264 37.5606 23.4194 37.5364Z" fill="white"/>
<path d="M46.5796 32.463C46.5195 32.4688 46.4588 32.4624 46.4012 32.4444C46.3436 32.4263 46.2901 32.3969 46.2441 32.3579C46.198 32.3188 46.1602 32.271 46.1329 32.2171C46.1056 32.1632 46.0894 32.1044 46.0852 32.0442C46.0102 31.6749 45.8595 31.1499 45.3757 31.2939C44.8623 31.4629 45.0999 32.001 45.2036 32.3747C45.2849 32.6973 45.4814 32.9791 45.7562 33.1667C46.0309 33.3544 46.3649 33.4349 46.6949 33.3932C46.756 33.3864 46.8178 33.3924 46.8764 33.4108C46.9351 33.4293 46.9892 33.4597 47.0354 33.5001C47.0817 33.5406 47.119 33.5902 47.145 33.6459C47.171 33.7016 47.1852 33.762 47.1866 33.8235V36.1763C47.1863 36.2381 47.1729 36.2991 47.1473 36.3553C47.1217 36.4116 47.0844 36.4617 47.0379 36.5024C46.9914 36.5431 46.9367 36.5734 46.8776 36.5914C46.8185 36.6094 46.7562 36.6145 46.6949 36.6066C46.3657 36.5656 46.0328 36.6459 45.7585 36.8325C45.4842 37.0191 45.2873 37.2992 45.2045 37.6205C44.959 38.5842 44.5766 39.5077 44.0688 40.3629C43.9017 40.6491 43.8433 40.986 43.9045 41.3117C43.9657 41.6375 44.1424 41.9302 44.4021 42.1362C44.4517 42.1731 44.4929 42.2203 44.5227 42.2746C44.5526 42.3288 44.5704 42.3888 44.575 42.4506C44.5796 42.5123 44.5709 42.5743 44.5494 42.6324C44.5279 42.6904 44.4942 42.7432 44.4506 42.7871L42.7867 44.451C42.7429 44.495 42.6902 44.5289 42.6321 44.5506C42.574 44.5722 42.5119 44.581 42.4501 44.5764C42.3882 44.5718 42.3281 44.5539 42.2739 44.5239C42.2196 44.4938 42.1725 44.4524 42.1358 44.4025C41.9294 44.1429 41.6364 43.9664 41.3104 43.9054C40.9844 43.8443 40.6474 43.9028 40.3611 44.0701C39.5077 44.5767 38.5862 44.9585 37.6247 45.204C37.2918 45.2881 37.0028 45.4945 36.8152 45.7821C36.6276 46.0696 36.5551 46.4172 36.6121 46.7558C36.61 46.8704 36.5632 46.9796 36.4817 47.0601C36.4002 47.1407 36.2904 47.1862 36.1758 47.187H33.823C33.4701 47.1886 33.3346 46.8299 33.4056 46.526C33.4068 46.2227 33.3063 45.9277 33.1202 45.6882C32.9341 45.4488 32.673 45.2786 32.3788 45.2049C31.4151 44.9594 30.4916 44.577 29.6365 44.0693C29.3502 43.9021 29.0134 43.8438 28.6876 43.905C28.3619 43.9662 28.0691 44.1429 27.8631 44.4025C27.8264 44.4524 27.7792 44.4938 27.725 44.5238C27.6707 44.5538 27.6106 44.5717 27.5488 44.5763C27.487 44.5809 27.4249 44.5721 27.3668 44.5505C27.3087 44.5289 27.256 44.4949 27.2122 44.451L26.9403 44.1791C26.8969 44.1353 26.8452 44.1004 26.7882 44.0766C26.7313 44.0528 26.6702 44.0404 26.6085 44.0403C26.5467 44.0402 26.4856 44.0522 26.4285 44.0758C26.3714 44.0993 26.3196 44.1339 26.2759 44.1776C26.2323 44.2212 26.1977 44.2731 26.1741 44.3301C26.1506 44.3872 26.1385 44.4483 26.1387 44.5101C26.1388 44.5718 26.1512 44.6329 26.175 44.6899C26.1988 44.7468 26.2336 44.7985 26.2775 44.8419L26.5494 45.1138C26.6898 45.2517 26.8581 45.358 27.0429 45.4256C27.2278 45.4931 27.4249 45.5204 27.6212 45.5055C27.8174 45.4906 28.0082 45.434 28.1807 45.3393C28.3533 45.2447 28.5036 45.1143 28.6216 44.9568C28.6879 44.8833 28.7776 44.8351 28.8754 44.8204C28.9732 44.8056 29.0731 44.8252 29.1581 44.8758C30.0911 45.4291 31.0984 45.8461 32.1495 46.114C32.2492 46.14 32.336 46.2014 32.3937 46.2867C32.4515 46.3721 32.4761 46.4755 32.4631 46.5777C32.4395 46.7708 32.457 46.9666 32.5144 47.1525C32.5719 47.3383 32.668 47.5098 32.7964 47.6559C32.9248 47.802 33.0827 47.9192 33.2596 48C33.4366 48.0807 33.6286 48.1231 33.8231 48.1244L36.1759 48.1245C36.5394 48.1248 36.8882 47.9808 37.1458 47.7242C37.4033 47.4676 37.5485 47.1193 37.5496 46.7558C37.5031 46.4956 37.555 46.1819 37.8535 46.1131C38.9026 45.8453 39.9081 45.4289 40.8394 44.8767C40.9244 44.8258 41.0244 44.8059 41.1223 44.8205C41.2203 44.835 41.3102 44.883 41.3768 44.9564C41.4948 45.1139 41.6452 45.2444 41.8177 45.3391C41.9903 45.4338 42.1811 45.4905 42.3774 45.5054C42.5737 45.5203 42.7709 45.4931 42.9558 45.4255C43.1407 45.358 43.309 45.2517 43.4495 45.1138L45.1134 43.4499C45.2516 43.3097 45.3581 43.1414 45.4258 42.9566C45.4935 42.7717 45.5209 42.5745 45.506 42.3781C45.4911 42.1818 45.4344 41.9909 45.3396 41.8184C45.2448 41.6458 45.1141 41.4956 44.9564 41.3777C44.8831 41.3113 44.8351 41.2216 44.8203 41.1239C44.8056 41.0261 44.825 40.9263 44.8754 40.8412C45.4287 39.9083 45.8456 38.9009 46.1136 37.8498C46.1395 37.7501 46.2009 37.6633 46.2863 37.6056C46.3716 37.5478 46.4751 37.5232 46.5773 37.5363C46.7706 37.5613 46.967 37.5447 47.1534 37.4878C47.3398 37.4309 47.5119 37.3349 47.6583 37.2062C47.8047 37.0775 47.9219 36.9191 48.0022 36.7415C48.0825 36.5639 48.124 36.3712 48.124 36.1763V33.8235C48.1239 33.6288 48.0823 33.4364 48.0021 33.259C47.9219 33.0817 47.8048 32.9234 47.6588 32.7947C47.5127 32.6661 47.3409 32.57 47.1549 32.5128C46.9688 32.4556 46.7727 32.4386 46.5796 32.463Z" fill="white"/>
<path d="M41.3935 35.3672C41.1793 40.4681 34.959 43.26 31.0218 40.0196C30.9244 39.9451 30.8016 39.9116 30.6798 39.9265C30.5581 39.9413 30.447 40.0033 30.3703 40.0991C30.2937 40.1949 30.2577 40.317 30.2699 40.439C30.2822 40.5611 30.3418 40.6735 30.436 40.7521C35.0071 44.4554 42.0517 41.2994 42.33 35.3936C42.3277 35.2731 42.2791 35.1581 42.1943 35.0725C42.1094 34.9868 41.9949 34.9372 41.8744 34.9338C41.7539 34.9304 41.6367 34.9735 41.5472 35.0542C41.4576 35.1349 41.4026 35.247 41.3935 35.3672Z" fill="white"/>
<path d="M27.6702 34.5849C27.6658 34.7076 27.7096 34.827 27.7923 34.9177C27.875 35.0083 27.99 35.063 28.1125 35.0698C28.235 35.0766 28.3553 35.0351 28.4475 34.9542C28.5398 34.8733 28.5966 34.7595 28.6059 34.6371C28.8131 29.5338 35.0389 26.739 38.9776 29.9806C39.075 30.0552 39.1978 30.0887 39.3196 30.0739C39.4415 30.0591 39.5526 29.9971 39.6293 29.9012C39.706 29.8054 39.742 29.6833 39.7297 29.5612C39.7174 29.4391 39.6577 29.3266 39.5634 29.248C35 25.5454 27.9412 28.7043 27.6702 34.5849Z" fill="white"/>
<path d="M36.5864 38.0174C36.6746 38.1047 36.7937 38.1536 36.9178 38.1536C37.0419 38.1536 37.1609 38.1047 37.2492 38.0174L46.1222 29.1444L46.9411 29.9638C47.0046 30.0255 47.0842 30.0681 47.1707 30.0867C47.2573 30.1053 47.3473 30.0992 47.4306 30.0691C47.5139 30.0389 47.587 29.986 47.6416 29.9163C47.6962 29.8466 47.7301 29.763 47.7394 29.6749L48.123 25.4564C48.1286 25.388 48.1193 25.3193 48.0956 25.255C48.072 25.1906 48.0347 25.1322 47.9862 25.0837C47.9377 25.0352 47.8793 24.9979 47.8149 24.9743C47.7506 24.9506 47.6818 24.9413 47.6135 24.9469L43.3949 25.33C43.3062 25.3381 43.2216 25.3713 43.151 25.4257C43.0805 25.4801 43.0269 25.5535 42.9966 25.6373C42.9663 25.7211 42.9605 25.8118 42.9799 25.8988C42.9993 25.9857 43.043 26.0654 43.1061 26.1283L43.925 26.9477L36.9178 33.9549L34.1814 31.2185C34.1378 31.175 34.0862 31.1404 34.0293 31.1169C33.9725 31.0933 33.9115 31.0812 33.85 31.0812C33.7884 31.0812 33.7275 31.0933 33.6706 31.1169C33.6137 31.1404 33.5621 31.175 33.5185 31.2185L22.013 42.7236C21.9258 42.8118 21.877 42.9309 21.877 43.055C21.877 43.179 21.9258 43.2981 22.013 43.3864L23.547 44.9203C23.5905 44.9638 23.6421 44.9984 23.699 45.0219C23.7559 45.0455 23.8168 45.0576 23.8784 45.0576C23.9399 45.0576 24.0009 45.0455 24.0577 45.0219C24.1146 44.9984 24.1663 44.9638 24.2098 44.9203L33.8499 35.2806L36.5864 38.0174ZM23.8784 43.9261L23.0073 43.055L33.85 32.2127L36.5864 34.9491C36.6299 34.9927 36.6816 35.0272 36.7384 35.0508C36.7953 35.0743 36.8562 35.0865 36.9178 35.0865C36.9793 35.0865 37.0403 35.0743 37.0972 35.0508C37.154 35.0272 37.2057 34.9927 37.2492 34.9491L44.9192 27.2791C44.9628 27.2356 44.9973 27.1839 45.0209 27.1271C45.0444 27.0702 45.0565 27.0093 45.0565 26.9477C45.0565 26.8862 45.0444 26.8252 45.0209 26.7683C44.9973 26.7115 44.9628 26.6598 44.9192 26.6163L44.4766 26.1732L47.1384 25.9315L46.8962 28.5929C46.6016 28.3191 46.2296 27.7417 45.7908 28.1502L36.9178 37.0232L34.1814 34.2863C34.1378 34.2428 34.0862 34.2082 34.0293 34.1847C33.9725 34.1611 33.9115 34.149 33.85 34.149C33.7884 34.149 33.7275 34.1611 33.6706 34.1847C33.6137 34.2082 33.5621 34.2428 33.5185 34.2863L23.8784 43.9261Z" fill="white"/>
</svg>
