<svg width="70" height="70" viewBox="0 0 70 70" fill="none" xmlns="http://www.w3.org/2000/svg">
<path d="M51.7576 58.6452L49.6293 52.2594C48.8855 50.0299 46.988 48.3843 44.6749 47.9632L38.5308 46.8453V46.3691C39.6 45.7485 40.5304 44.9183 41.2714 43.9355H43.1276C44.6482 43.9355 45.8857 42.6981 45.8857 41.1775V30.1452C45.8857 23.5553 40.524 18.1936 33.934 18.1936C27.3441 18.1936 21.9824 23.5553 21.9824 30.1452V36.5807C21.9824 38.3532 23.2429 39.8361 24.9143 40.1818C25.43 42.824 27.0812 45.0599 29.3373 46.3691V46.8453L23.1923 47.9632C20.8801 48.3843 18.9817 50.0299 18.2388 52.2594L17.8711 53.3635L14.7398 50.2322C14.3812 49.8736 14.3812 49.2899 14.7398 48.9313L18.3712 45.3008L11.5551 38.4847L7.45111 42.5887C6.23573 43.8041 5.56644 45.4203 5.56644 47.1395C5.56644 48.8587 6.23573 50.474 7.45111 51.6894L19.8762 64.1145C21.0916 65.3298 22.7078 66.0001 24.427 66.0001C26.1462 66.0001 27.7615 65.3298 28.9484 64.142L33.4266 60.039L32.0301 58.6452H51.7576ZM44.047 41.1775C44.047 41.685 43.6342 42.0968 43.1276 42.0968H42.3544C42.621 41.4891 42.8233 40.8483 42.9538 40.1818C43.3473 40.1 43.7095 39.9437 44.047 39.747V41.1775ZM43.1276 38.1638V34.9976C43.6746 35.3166 44.047 35.9031 44.047 36.5807C44.047 37.2583 43.6746 37.8448 43.1276 38.1638ZM24.7405 38.1638C24.1935 37.8448 23.8211 37.2583 23.8211 36.5807C23.8211 35.9031 24.1935 35.3166 24.7405 34.9976V38.1638ZM24.7405 31.9839V33.0338C24.4132 33.1193 24.1061 33.248 23.8211 33.4144V30.1452C23.8211 24.5693 28.3582 20.0323 33.934 20.0323C39.5099 20.0323 44.047 24.5693 44.047 30.1452V33.4144C43.762 33.248 43.4549 33.1184 43.1276 33.0338V31.9839H42.2082C39.4897 31.9839 36.9339 30.9248 35.0106 29.0025L33.934 27.9259L32.8575 29.0025C30.9342 30.9248 28.3784 31.9839 25.6599 31.9839H24.7405ZM26.5792 38.4194V33.7877C29.34 33.5799 31.9142 32.4408 33.934 30.5203C35.9539 32.4408 38.5281 33.5808 41.2889 33.7877V38.4194C41.2889 39.7598 40.923 41.0138 40.2941 42.0968H33.934V43.9355H38.7827C37.4864 45.0765 35.7921 45.7742 33.934 45.7742C29.8788 45.7742 26.5792 42.4747 26.5792 38.4194ZM36.6921 47.1891V47.2323L33.934 49.9904L31.176 47.2323V47.1891C32.0475 47.4631 32.9733 47.613 33.934 47.613C34.8948 47.613 35.8206 47.4631 36.6921 47.1891ZM19.9819 52.8404C20.5124 51.2481 21.8684 50.0722 23.5205 49.7707L29.9468 48.6031L33.934 52.5903L37.9204 48.604L44.3457 49.7716C45.9978 50.0732 47.3539 51.2481 47.8843 52.8413L49.2073 56.8065H30.1914L26.6105 53.2256L22.6315 56.8249C22.2849 57.1733 21.6791 57.1733 21.3315 56.8249L19.3237 54.817L19.9819 52.8404ZM11.5542 41.0846L15.7704 45.3008L14.7719 46.2992L10.5558 42.083L11.5542 41.0846ZM27.6751 62.8163C26.8072 63.6824 25.6525 64.1613 24.4252 64.1613C23.1978 64.1613 22.0431 63.6824 21.1743 62.8145L8.74924 50.3903C7.88137 49.5225 7.40331 48.3677 7.40331 47.1404C7.40331 45.9122 7.88137 44.7574 8.74924 43.8896L9.25489 43.3839L13.471 47.6001L13.438 47.6332C12.3632 48.7088 12.3632 50.4584 13.438 51.534L20.0306 58.1267C20.5519 58.6471 21.2442 58.9348 21.9815 58.9348C22.7188 58.9348 23.4111 58.648 23.8984 58.1589L23.9673 58.0973L28.2028 62.3327L27.6751 62.8163ZM29.5598 61.0879L25.3335 56.8617L26.548 55.764L30.7669 59.9829L29.5598 61.0879Z" fill="#003B6A"/>
<path d="M59.6759 9H46.8049C45.2843 9 44.0469 10.2375 44.0469 11.7581V19.1129C44.0469 20.6335 45.2843 21.871 46.8049 21.871H49.2605L48.3099 27.4156L57.1817 21.871H59.6759C61.1965 21.871 62.434 20.6335 62.434 19.1129V11.7581C62.434 10.2375 61.1965 9 59.6759 9ZM60.5953 19.1129C60.5953 19.6195 60.1825 20.0323 59.6759 20.0323H56.654L50.8152 23.6812L51.4412 20.0323H46.8049C46.2984 20.0323 45.8856 19.6195 45.8856 19.1129V11.7581C45.8856 11.2515 46.2984 10.8387 46.8049 10.8387H59.6759C60.1825 10.8387 60.5953 11.2515 60.5953 11.7581V19.1129Z" fill="#003B6A"/>
<path d="M58.7549 12.6772H47.7227V14.516H58.7549V12.6772Z" fill="#003B6A"/>
<path d="M55.0775 16.355H47.7227V18.1937H55.0775V16.355Z" fill="#003B6A"/>
<path d="M58.7547 16.355H56.916V18.1937H58.7547V16.355Z" fill="#003B6A"/>
<path d="M33.935 11.7581C21.9227 11.7581 11.5753 20.0672 8.88531 31.6575L7.14313 28.7533L5.56644 29.6993L8.79797 35.0839L14.1826 31.8524L13.2366 30.2757L10.7452 31.7706C13.3506 21.1677 22.8852 13.5968 33.935 13.5968C36.3501 13.5968 38.7331 13.9553 41.0177 14.6632L41.5619 12.9073C39.1008 12.1442 36.5349 11.7581 33.935 11.7581Z" fill="#003B6A"/>
<path d="M61.9872 29.3563L56.6025 26.1248L53.3719 31.5103L54.9486 32.4564L56.5575 29.7746C57.4042 32.2523 57.8372 34.8439 57.8372 37.4999C57.8372 42.9673 55.9433 48.3125 52.5059 52.5498L53.9336 53.7082C57.6368 49.1445 59.6759 43.3875 59.6759 37.4999C59.6759 34.6876 59.2227 31.9415 58.3392 29.3122L61.0412 30.933L61.9872 29.3563Z" fill="#003B6A"/>
</svg>
