<svg width="40" height="40" viewBox="0 0 40 40" fill="none" xmlns="http://www.w3.org/2000/svg">
<circle cx="20" cy="19.9922" r="19.5" stroke="#D9D9D9"/>
<path d="M24.0013 11H16.0004C13.7911 11 12 12.7909 12 15V23C12 25.2091 13.7911 27 16.0004 27H24.0013C26.2107 27 28.0018 25.2091 28.0018 23V15C28.0018 12.7909 26.2107 11 24.0013 11Z" stroke="#003B6A" stroke-width="2" stroke-linecap="round" stroke-linejoin="round"/>
<path d="M23.202 18.4965C23.3008 19.1624 23.187 19.8425 22.877 20.44C22.567 21.0375 22.0764 21.522 21.4751 21.8247C20.8739 22.1273 20.1925 22.2326 19.5279 22.1257C18.8633 22.0187 18.2493 21.705 17.7733 21.229C17.2973 20.753 16.9835 20.139 16.8766 19.4744C16.7696 18.8098 16.875 18.1284 17.1776 17.5271C17.4803 16.9259 17.9648 16.4353 18.5623 16.1253C19.1598 15.8152 19.8399 15.7015 20.5057 15.8002C21.1849 15.901 21.8138 16.2175 22.2993 16.703C22.7848 17.1885 23.1013 17.8173 23.202 18.4965Z" stroke="#003B6A" stroke-width="2" stroke-linecap="round" stroke-linejoin="round"/>
<path d="M24.4023 14.5977H24.4123" stroke="#003B6A" stroke-width="2" stroke-linecap="round" stroke-linejoin="round"/>
</svg>
