<svg width="40" height="40" viewBox="0 0 40 40" fill="none" xmlns="http://www.w3.org/2000/svg">
<circle cx="20" cy="20" r="20" fill="#003B6A"/>
<path d="M24.0013 11.0078H16.0004C13.7911 11.0078 12 12.7987 12 15.0078V23.0078C12 25.217 13.7911 27.0078 16.0004 27.0078H24.0013C26.2107 27.0078 28.0018 25.217 28.0018 23.0078V15.0078C28.0018 12.7987 26.2107 11.0078 24.0013 11.0078Z" stroke="white" stroke-width="2" stroke-linecap="round" stroke-linejoin="round"/>
<path d="M23.202 18.5044C23.3008 19.1702 23.187 19.8503 22.877 20.4478C22.567 21.0453 22.0764 21.5298 21.4751 21.8325C20.8739 22.1351 20.1925 22.2404 19.5279 22.1335C18.8633 22.0266 18.2493 21.7128 17.7733 21.2368C17.2973 20.7608 16.9835 20.1468 16.8766 19.4822C16.7696 18.8176 16.875 18.1362 17.1776 17.5349C17.4803 16.9337 17.9648 16.4431 18.5623 16.1331C19.1598 15.8231 19.8399 15.7093 20.5057 15.8081C21.1849 15.9088 21.8138 16.2253 22.2993 16.7108C22.7848 17.1963 23.1013 17.8251 23.202 18.5044Z" stroke="white" stroke-width="2" stroke-linecap="round" stroke-linejoin="round"/>
<path d="M24.4023 14.6055H24.4123" stroke="white" stroke-width="2" stroke-linecap="round" stroke-linejoin="round"/>
</svg>
