<svg width="27" height="26" viewBox="0 0 27 26" fill="none" xmlns="http://www.w3.org/2000/svg">
<path d="M17.9375 8.66699C19.6614 8.66699 21.3147 9.35181 22.5337 10.5708C23.7527 11.7898 24.4375 13.4431 24.4375 15.167V22.7503H20.1042V15.167C20.1042 14.5924 19.8759 14.0413 19.4696 13.6349C19.0632 13.2286 18.5121 13.0003 17.9375 13.0003C17.3629 13.0003 16.8118 13.2286 16.4054 13.6349C15.9991 14.0413 15.7708 14.5924 15.7708 15.167V22.7503H11.4375V15.167C11.4375 13.4431 12.1223 11.7898 13.3413 10.5708C14.5603 9.35181 16.2136 8.66699 17.9375 8.66699Z" stroke="#003B6A" stroke-width="2" stroke-linecap="round" stroke-linejoin="round"/>
<path d="M7.09896 9.75H2.76562V22.75H7.09896V9.75Z" stroke="#003B6A" stroke-width="2" stroke-linecap="round" stroke-linejoin="round"/>
<path d="M4.93229 6.50033C6.12891 6.50033 7.09896 5.53028 7.09896 4.33366C7.09896 3.13704 6.12891 2.16699 4.93229 2.16699C3.73567 2.16699 2.76562 3.13704 2.76562 4.33366C2.76562 5.53028 3.73567 6.50033 4.93229 6.50033Z" stroke="#003B6A" stroke-width="2" stroke-linecap="round" stroke-linejoin="round"/>
</svg>
