<svg width="40" height="40" viewBox="0 0 40 40" fill="none" xmlns="http://www.w3.org/2000/svg">
<circle cx="20" cy="20" r="20" fill="#003B6A"/>
<path d="M14.1693 13.7487C15.0437 13.7487 15.7526 13.0398 15.7526 12.1654C15.7526 11.2909 15.0437 10.582 14.1693 10.582C13.2948 10.582 12.5859 11.2909 12.5859 12.1654C12.5859 13.0398 13.2948 13.7487 14.1693 13.7487Z" stroke="white" stroke-width="1.5" stroke-linecap="round" stroke-linejoin="round"/>
<path d="M23.6641 15.332C24.9238 15.332 26.132 15.8325 27.0228 16.7233C27.9136 17.6141 28.4141 18.8223 28.4141 20.082V25.6237H25.2474V20.082C25.2474 19.6621 25.0806 19.2594 24.7836 18.9624C24.4867 18.6655 24.084 18.4987 23.6641 18.4987C23.2441 18.4987 22.8414 18.6655 22.5445 18.9624C22.2475 19.2594 22.0807 19.6621 22.0807 20.082V25.6237H18.9141V20.082C18.9141 18.8223 19.4145 17.6141 20.3053 16.7233C21.1961 15.8325 22.4043 15.332 23.6641 15.332Z" stroke="white" stroke-width="1.5" stroke-linecap="round" stroke-linejoin="round"/>
<path d="M15.7526 16.125H12.5859V25.625H15.7526V16.125Z" stroke="white" stroke-width="1.5" stroke-linecap="round" stroke-linejoin="round"/>
</svg>
