<svg width="27" height="23" viewBox="0 0 27 23" fill="none" xmlns="http://www.w3.org/2000/svg">
<path fill-rule="evenodd" clip-rule="evenodd" d="M19.5168 0C23.6671 0 26.7967 3.20427 26.7967 7.45345V15.5532C26.7967 17.7279 25.9841 19.6927 24.5072 21.0866C23.1823 22.3356 21.4636 22.9972 19.5367 22.9972H7.25631C5.33318 22.9972 3.61569 22.3367 2.28956 21.0866C0.812627 19.6927 0 17.7279 0 15.5532V7.45345C0 3.20427 3.12961 0 7.27999 0H19.5168ZM19.5168 1.76901H7.27999C4.14539 1.76901 1.86954 4.15954 1.86954 7.45345V15.5532C1.86954 17.255 2.48774 18.7751 3.60946 19.833C4.57664 20.747 5.8392 21.2282 7.26005 21.2282H19.5168C19.5193 21.2258 19.5292 21.2282 19.5367 21.2282C20.9588 21.2282 22.2201 20.747 23.1873 19.833C24.3103 18.7751 24.9272 17.255 24.9272 15.5532V7.45345C24.9272 4.15954 22.6514 1.76901 19.5168 1.76901ZM21.481 7.22795C21.8063 7.60652 21.7452 8.16317 21.3452 8.47216L15.8063 12.7319C15.1059 13.2579 14.2683 13.5209 13.432 13.5209C12.5982 13.5209 11.7669 13.2603 11.0714 12.739L5.48149 8.47452C5.07892 8.16789 5.0166 7.61006 5.33941 7.23031C5.66471 6.85174 6.25299 6.7916 6.65432 7.09705L12.2393 11.3568C12.941 11.8828 13.9293 11.8828 14.636 11.3521L20.1649 7.09941C20.5662 6.78924 21.1545 6.84821 21.481 7.22795Z" fill="white"/>
</svg>
