<svg width="70" height="70" viewBox="0 0 70 70" fill="none" xmlns="http://www.w3.org/2000/svg">
<circle cx="35" cy="35" r="35" fill="#003B6A"/>
<g clip-path="url(#clip0_355_3953)">
<path d="M47.8685 36.7357C47.8521 36.7049 48.0139 36.9669 45.4881 32.9217C45.0923 32.1707 44.8832 31.3224 44.8832 30.4672C44.8832 27.3886 43.6792 24.4985 41.4929 22.3295C36.9703 17.8425 29.6639 17.9061 25.2247 22.4267C21.6967 26.0194 21.0015 31.3798 23.1976 35.6792C24.6318 38.472 25.3906 41.5959 25.3906 44.7132V48.4142C25.3906 48.7377 25.6515 49.0001 25.9751 49.0001H38.8594C39.1829 49.0001 39.4526 48.7377 39.4526 48.4142V44.3128H42.01C43.5956 44.3128 44.9016 43.0036 44.9016 41.418V39.0634L46.5207 39.0375C47.6821 39.0176 48.425 37.7746 47.8685 36.7357ZM46.4933 37.8657L44.2983 37.9009C43.9784 37.9061 43.7297 38.1668 43.7297 38.4868V41.4179C43.7297 42.3574 42.9495 43.1409 42.01 43.1409H38.8594C38.5358 43.1409 38.2807 43.3841 38.2807 43.7077V47.8282H26.5624V44.7132C26.5624 41.4106 25.7589 38.1015 24.2406 35.145C22.3059 31.3573 22.8407 26.527 26.061 23.2478C30.0364 19.1996 36.5981 19.124 40.6676 23.1614C42.6304 25.1087 43.7114 27.7034 43.7114 30.4672C43.7114 31.5203 43.9712 32.5653 44.4628 33.4895C44.4812 33.524 44.3226 33.2667 46.8425 37.3026C46.9667 37.5556 46.783 37.8608 46.4933 37.8657Z" fill="white"/>
<path d="M38.5999 28.7907C39.5402 27.5807 40.0341 26.1957 39.9439 24.9491C39.923 24.6588 39.6921 24.4279 39.4018 24.407C38.1552 24.3163 36.7702 24.8105 35.5602 25.7509C35.3694 24.2305 34.7393 22.902 33.7942 22.0842C33.5741 21.8938 33.2475 21.8938 33.0274 22.0842C32.0822 22.902 31.4521 24.2305 31.2614 25.7511C30.0511 24.8109 28.6656 24.3171 27.4199 24.407C27.1296 24.4279 26.8987 24.6588 26.8777 24.9491C26.7876 26.1957 27.2814 27.5806 28.2217 28.7907C26.7012 28.9814 25.3726 29.6116 24.5549 30.5568C24.3645 30.7769 24.3645 31.1034 24.5549 31.3235C26.517 33.5914 31.0823 33.7615 33.4108 31.7628C35.741 33.7629 40.3062 33.5894 42.2667 31.3235C42.4571 31.1034 42.4571 30.7769 42.2667 30.5568C41.449 29.6115 40.1205 28.9814 38.5999 28.7907ZM38.7632 25.5876C38.6604 26.5308 38.1216 27.7204 37.0709 28.7481C36.428 28.7921 35.8127 28.9133 35.2478 29.1031C35.4376 28.5381 35.5588 27.9229 35.6028 27.2799C36.6356 26.2248 37.8244 25.6901 38.7632 25.5876ZM33.4108 23.3707C34.7941 25.0927 34.7957 28.3728 33.4108 30.0967C32.0274 28.3747 32.0259 25.0945 33.4108 23.3707ZM31.2188 27.2799C31.2628 27.9229 31.3841 28.5381 31.5738 29.1031C31.009 28.9133 30.3937 28.7921 29.7508 28.7481C28.898 27.9147 28.1853 26.7508 28.0585 25.5876C28.9979 25.6902 30.1868 26.2256 31.2188 27.2799ZM25.8414 30.9401C27.5634 29.5567 30.8436 29.5552 32.5675 30.9401C30.8454 32.3234 27.5652 32.325 25.8414 30.9401ZM34.2542 30.9401C35.9762 29.5567 39.2564 29.5552 40.9803 30.9401C39.2582 32.3234 35.978 32.325 34.2542 30.9401Z" fill="white"/>
</g>
<defs>
<clipPath id="clip0_355_3953">
<rect width="30" height="30" fill="white" transform="translate(20 19)"/>
</clipPath>
</defs>
</svg>
