<svg width="70" height="70" viewBox="0 0 70 70" fill="none" xmlns="http://www.w3.org/2000/svg">
<circle cx="35" cy="35" r="35" fill="#003B6A"/>
<path d="M38.2472 28.6164H44.5351C44.891 28.6164 45.1808 28.3275 45.1808 27.9715C45.1808 27.6156 44.891 27.3267 44.5351 27.3267H38.2472C37.8913 27.3267 37.6023 27.6156 37.6023 27.9715C37.6023 28.3275 37.8912 28.6164 38.2472 28.6164Z" fill="white"/>
<path d="M44.5351 32.4595H37.8266C37.4708 32.4595 37.1818 32.7484 37.1818 33.1044C37.1818 33.4602 37.4707 33.7492 37.8266 33.7492H44.5351C44.891 33.7492 45.1808 33.4603 45.1808 33.1044C45.1808 32.7485 44.891 32.4595 44.5351 32.4595Z" fill="white"/>
<path d="M34.1811 28.155C33.9505 27.8849 33.5418 27.8526 33.2717 28.0817C33.0001 28.3132 32.9678 28.7203 33.1985 28.9911L34.0071 29.9407C34.1299 30.0847 34.3095 30.1674 34.4984 30.1674C34.7323 30.1399 34.8709 30.0832 34.9929 29.9367L37.5495 26.8833C37.7779 26.6101 37.7416 26.203 37.4692 25.9746C37.1967 25.7463 36.7897 25.7833 36.5605 26.0549L34.4944 28.5226L34.1811 28.155Z" fill="white"/>
<path d="M37.4693 30.6848C37.1945 30.4557 36.7898 30.4919 36.5606 30.7651L34.4945 33.2335L34.1811 32.8659C33.9505 32.595 33.5418 32.5643 33.2717 32.7926C33.0001 33.0241 32.9678 33.4312 33.1985 33.702L34.0071 34.6516C34.1299 34.7956 34.3095 34.8783 34.4984 34.8783C34.7323 34.9232 34.8709 34.7933 34.9929 34.6476L37.5495 31.5934C37.7779 31.3202 37.7417 30.9132 37.4693 30.6848Z" fill="white"/>
<path d="M52.9112 37.098C52.5506 36.6302 51.9538 36.3507 51.3129 36.3507H47.1666V24.7921C47.1666 24.0684 46.5839 23.4803 45.869 23.4803L42.8166 23.4837L42.8281 22.1221C42.8281 21.4237 42.2517 20.8552 41.5447 20.8552H39.7215L39.7321 19.4931C39.7463 19.1514 39.6219 18.8254 39.3841 18.5765C39.1448 18.3278 38.8109 18.1852 38.466 18.1852L26.1767 18.2002C25.4366 18.2002 24.8342 18.8025 24.8342 19.5435V36.3508H20.6863C20.0453 36.3508 19.4477 36.6303 19.0871 37.0988C18.7792 37.498 18.6753 37.9996 18.8005 38.4751L22.5066 52.4872C22.713 53.2683 23.4885 53.8148 24.3924 53.8148H47.6074C48.5113 53.8148 49.2877 53.2683 49.494 52.4872L53.1994 38.4735C53.3254 37.9995 53.2199 37.498 52.9112 37.098ZM45.8752 24.7921V36.3507H32.2996L32.3512 24.7849L34.5055 24.7699L45.8752 24.7921ZM41.5252 23.4851L32.3512 23.4953C31.6111 23.4953 31.0088 24.0977 31.0088 24.8378V36.3508H29.2042L29.2561 22.145H39.1022L41.5368 22.1166L41.5252 23.4851ZM26.1767 19.4899L38.4424 19.4615L38.4306 20.8552H29.2561C28.516 20.8552 27.9136 21.4576 27.9136 22.1985V36.3508H26.1247L26.1767 19.4899ZM51.9523 38.1444L48.2469 52.1565C48.1996 52.3376 47.9477 52.5234 47.6076 52.5234H24.3925C24.0531 52.5234 23.8019 52.3376 23.7539 52.1565L20.0477 38.1444C20.039 38.1113 20.0123 38.0121 20.1091 37.8861C20.2004 37.7664 20.3996 37.6404 20.6862 37.6404H51.3129C51.5995 37.6404 51.7994 37.7664 51.8892 37.8861C51.9868 38.0121 51.9601 38.1129 51.9523 38.1444Z" fill="white"/>
<path d="M46.3619 41.9175H25.6373C25.2814 41.9175 24.9924 42.2072 24.9924 42.5631C24.9924 42.919 25.2814 43.2087 25.6373 43.2087H46.3619C46.7177 43.2087 47.0075 42.919 47.0075 42.5631C47.0075 42.2072 46.7177 41.9175 46.3619 41.9175Z" fill="white"/>
<path d="M44.0453 46.9568H27.9537C27.5978 46.9568 27.3088 47.2465 27.3088 47.6024C27.3088 47.9583 27.5978 48.248 27.9537 48.248H44.0453C44.4012 48.248 44.6909 47.9583 44.6909 47.6024C44.691 47.2465 44.4013 46.9568 44.0453 46.9568Z" fill="white"/>
</svg>
