<svg width="70" height="70" viewBox="0 0 70 70" fill="none" xmlns="http://www.w3.org/2000/svg">
<circle cx="35" cy="35" r="35" fill="#003B6A"/>
<g clip-path="url(#clip0_355_3935)">
<path d="M31.1502 36.514H41.8502C42.4473 36.5144 42.9965 36.1868 43.2797 35.661C43.5876 35.1087 43.5723 34.4329 43.2397 33.895L37.8897 25.295C37.5944 24.811 37.0682 24.5156 36.5012 24.5156C35.9341 24.5156 35.408 24.811 35.1127 25.295L29.7602 33.898C29.428 34.4357 29.4129 35.111 29.7207 35.663C30.0044 36.188 30.5534 36.5148 31.1502 36.514ZM30.6097 34.4235L35.9597 25.8235C36.0728 25.6323 36.2785 25.5149 36.5007 25.5149C36.7229 25.5149 36.9286 25.6323 37.0417 25.8235L42.3917 34.4235C42.5343 34.6516 42.5406 34.9394 42.4082 35.1735C42.2992 35.3802 42.0858 35.5105 41.8522 35.513H31.1502C30.9166 35.5105 30.7032 35.3802 30.5942 35.1735C30.4616 34.9396 30.4675 34.6518 30.6097 34.4235Z" fill="white"/>
<path d="M48.854 38.1589C48.4498 38.0428 48.0159 38.0932 47.649 38.2989L46.594 38.8949C46.5469 38.7641 46.4794 38.6416 46.394 38.5319L45.0095 36.7319C45.1987 36.347 45.3626 35.9502 45.5 35.5439L47.7545 35.2499C48.3261 35.1822 48.7834 34.7436 48.875 34.1754C49.0423 33.0727 49.0423 31.9511 48.875 30.8484C48.7866 30.2765 48.3289 29.8331 47.7545 29.7629L45.5 29.4684C45.3631 29.0627 45.1999 28.6663 45.0115 28.2819L46.398 26.4819C46.7486 26.0247 46.76 25.3923 46.426 24.9229C46.0945 24.4762 45.7316 24.0538 45.34 23.6589C44.9427 23.2651 44.5178 22.9002 44.0685 22.5669C43.599 22.2376 42.9699 22.2516 42.5155 22.6014L40.7155 23.9869C40.3315 23.7987 39.9357 23.6356 39.5305 23.4989L39.236 21.2434C39.1662 20.6712 38.7254 20.2147 38.156 20.1249C37.0531 19.9584 35.9314 19.9584 34.8285 20.1249C34.259 20.2147 33.8186 20.672 33.75 21.2444L33.455 23.4989C33.0489 23.6357 32.6523 23.7988 32.2675 23.9874L30.4675 22.6039C30.0139 22.2482 29.3798 22.2347 28.9115 22.5709C28.4637 22.9023 28.0407 23.2661 27.646 23.6594C27.2538 24.0556 26.8899 24.4788 26.557 24.9259C26.2208 25.3945 26.2337 26.0287 26.5885 26.4834L27.974 28.2809C27.7854 28.6652 27.6224 29.0616 27.486 29.4674L25.224 29.7619C24.6519 29.8372 24.1971 30.2792 24.1055 30.8489C23.9442 31.953 23.9442 33.0747 24.1055 34.1789C24.2024 34.7433 24.6572 35.1778 25.2255 35.2489L27.4865 35.5434C27.6226 35.9496 27.7857 36.3463 27.9745 36.7309L26.5875 38.5349C26.4819 38.6755 26.4051 38.8355 26.3615 39.0059L25.9615 39.1779C25.811 38.4908 25.2033 38.0006 24.5 37.9989H21.5C20.6716 37.9989 20 38.6704 20 39.4989V46.4989C20 47.3273 20.6716 47.9989 21.5 47.9989H24.5C25.2889 47.9967 25.9407 47.3827 25.99 46.5954C26.0923 46.5922 26.1944 46.6056 26.2925 46.6349L36.477 49.8929C37.2549 50.1251 38.0971 49.9672 38.738 49.4689L49.4 40.9209C49.7777 40.619 49.9983 40.1624 50 39.6789C49.9984 39.4099 49.9296 39.1456 49.8 38.9099C49.5969 38.5439 49.2565 38.2737 48.854 38.1589ZM27.9295 34.5929L25.3545 34.2584C25.2275 34.2446 25.1231 34.1519 25.0945 34.0274C24.9488 33.0221 24.9488 32.0011 25.0945 30.9959C25.1201 30.8676 25.2251 30.7702 25.355 30.7544L27.93 30.4194C28.125 30.3943 28.2871 30.2574 28.3445 30.0694C28.5104 29.5152 28.7316 28.9792 29.005 28.4694C29.0992 28.2955 29.0822 28.0825 28.9615 27.9259L27.3825 25.8759C27.2996 25.7765 27.2907 25.6348 27.3605 25.5259C27.6642 25.1175 27.9964 24.731 28.3545 24.3694C28.713 24.0116 29.0974 23.6807 29.5045 23.3794C29.6129 23.3095 29.7538 23.3168 29.8545 23.3974L31.909 24.9774C32.0656 25.0977 32.2784 25.1145 32.452 25.0204C32.963 24.747 33.5 24.5254 34.055 24.3589C34.2427 24.3017 34.3796 24.1399 34.405 23.9454L34.74 21.3744C34.7526 21.2456 34.8481 21.1404 34.975 21.1154C35.9806 20.9631 37.0034 20.9631 38.009 21.1154C38.1362 21.14 38.2318 21.2458 38.2435 21.3749L38.5785 23.9449C38.6039 24.1394 38.7408 24.3012 38.9285 24.3584C39.4833 24.5252 40.0201 24.7468 40.531 25.0199C40.7048 25.1141 40.9179 25.0971 41.0745 24.9764L43.1245 23.3974C43.2243 23.3155 43.3652 23.3067 43.4745 23.3754C44.2929 23.9776 45.0157 24.6999 45.6185 25.5179C45.6929 25.6273 45.6868 25.7726 45.6035 25.8754L44.0235 27.9254C43.9028 28.082 43.8858 28.295 43.98 28.4689C44.253 28.979 44.4746 29.5149 44.6415 30.0689C44.6987 30.2566 44.8604 30.3935 45.055 30.4189L47.625 30.7539C47.756 30.7662 47.8626 30.8647 47.885 30.9944C47.9618 31.4955 48.0003 32.0019 48 32.5089C48.0002 33.0174 47.9619 33.5252 47.8855 34.0279C47.8581 34.153 47.753 34.2461 47.6255 34.2584L45.0555 34.5929C44.8609 34.6183 44.6992 34.7552 44.642 34.9429C44.4755 35.4979 44.2539 36.0349 43.9805 36.5459C43.8863 36.7195 43.9032 36.9323 44.0235 37.0889L45.606 39.1489C45.6669 39.2283 45.6856 39.3323 45.656 39.4279L42.934 40.9639C42.76 40.385 42.2704 39.9565 41.6735 39.8609L40.8185 39.7159C40.807 39.7159 40.7935 39.7124 40.78 39.7114L30.509 38.0549C29.6804 37.9243 28.8323 38.0032 28.042 38.2844L28.9615 37.0889C29.0818 36.9323 29.0987 36.7195 29.0045 36.5459C28.7312 36.0352 28.5099 35.4983 28.344 34.9434C28.2868 34.7552 28.1246 34.618 27.9295 34.5929ZM25 46.4989C25 46.775 24.7761 46.9989 24.5 46.9989H21.5C21.2239 46.9989 21 46.775 21 46.4989V39.4989C21 39.2227 21.2239 38.9989 21.5 38.9989H24.5C24.7761 38.9989 25 39.2227 25 39.4989V46.4989ZM48.777 40.1384L38.118 48.6839C37.736 48.979 37.2358 49.0734 36.7725 48.9379L26.594 45.6819C26.4061 45.6234 26.2103 45.5937 26.0135 45.5939H26V40.2524L28.374 39.2244C29.007 38.9981 29.6869 38.9355 30.3505 39.0424L40.6455 40.7024L40.6775 40.7064L41.5095 40.8474C41.79 40.8937 41.9968 41.1346 42 41.4189C41.9999 41.4941 41.9855 41.5686 41.9575 41.6384V41.6439C41.9302 41.7116 41.8898 41.7733 41.8385 41.8254C41.7273 41.936 41.5769 41.9984 41.42 41.9989H31.925C31.6489 41.9989 31.425 42.2227 31.425 42.4989C31.425 42.775 31.6489 42.9989 31.925 42.9989H33.782L36.692 44.8059C37.1475 45.0631 37.7042 45.0645 38.161 44.8094L41.366 42.9989H41.42C41.839 42.9981 42.2409 42.8323 42.5385 42.5374C42.6425 42.4338 42.7312 42.3159 42.802 42.1874L48.1385 39.1704C48.4177 39.0154 48.7696 39.1148 48.9265 39.3929C48.9743 39.4807 48.9995 39.5789 49 39.6789C48.9995 39.858 48.9174 40.0271 48.777 40.1384ZM39.333 42.9989L37.672 43.9369C37.5254 44.0187 37.3476 44.0215 37.1985 43.9444L35.677 42.9989H39.333Z" fill="white"/>
<path d="M23.5 40H22.5C22.2239 40 22 40.2239 22 40.5C22 40.7761 22.2239 41 22.5 41H23.5C23.7761 41 24 40.7761 24 40.5C24 40.2239 23.7761 40 23.5 40Z" fill="white"/>
<path d="M23.5 45H22.5C22.2239 45 22 45.2239 22 45.5C22 45.7761 22.2239 46 22.5 46H23.5C23.7761 46 24 45.7761 24 45.5C24 45.2239 23.7761 45 23.5 45Z" fill="white"/>
<path d="M36.5 32.0156C36.7761 32.0156 37 31.7918 37 31.5156V27.5156C37 27.2395 36.7761 27.0156 36.5 27.0156C36.2239 27.0156 36 27.2395 36 27.5156V31.5156C36 31.7918 36.2239 32.0156 36.5 32.0156Z" fill="white"/>
<path d="M36.5 34.5156C36.7761 34.5156 37 34.2918 37 34.0156V33.5156C37 33.2395 36.7761 33.0156 36.5 33.0156C36.2239 33.0156 36 33.2395 36 33.5156V34.0156C36 34.2918 36.2239 34.5156 36.5 34.5156Z" fill="white"/>
</g>
<defs>
<clipPath id="clip0_355_3935">
<rect width="30" height="30" fill="white" transform="translate(20 20)"/>
</clipPath>
</defs>
</svg>
