<svg width="70" height="70" viewBox="0 0 70 70" fill="none" xmlns="http://www.w3.org/2000/svg">
<g clip-path="url(#clip0_1599_2302)">
<path d="M53.5194 22.0718C53.4973 20.9109 53.4762 19.8142 53.4762 18.7532C53.4762 17.9219 52.8025 17.2481 51.9711 17.2481C45.5343 17.2481 40.6334 15.3982 36.5484 11.4263C35.964 10.858 35.034 10.8582 34.4498 11.4263C30.3652 15.3982 25.4651 17.2481 19.0287 17.2481C18.1974 17.2481 17.5236 17.9219 17.5236 18.7532C17.5236 19.8144 17.5027 20.9115 17.4804 22.0726C17.2741 32.8765 16.9916 47.673 35.0061 53.9172C35.1659 53.9725 35.3324 54.0002 35.499 54.0002C35.6656 54.0002 35.8323 53.9725 35.9919 53.9172C54.0078 47.6728 53.7257 32.8759 53.5194 22.0718ZM35.4992 50.8979C20.0493 45.2855 20.2829 32.9907 20.4902 22.13C20.5027 21.4782 20.5147 20.8465 20.5231 20.2272C26.5516 19.9727 31.3724 18.1459 35.4992 14.5509C39.6264 18.1459 44.448 19.9729 50.4768 20.2272C50.4853 20.8463 50.4973 21.4776 50.5098 22.129C50.7169 32.9901 50.9503 45.2853 35.4992 50.8979Z" fill="#003B6A"/>
<path d="M40.6822 27.2717L33.4177 34.5357L30.3178 31.4358C29.73 30.8482 28.777 30.8482 28.1894 31.4358C27.6016 32.0238 27.6016 32.9766 28.1894 33.5644L32.3535 37.7286C32.6473 38.0224 33.0326 38.1693 33.4177 38.1693C33.8028 38.1693 34.1881 38.0224 34.4819 37.7286L42.8104 29.4003C43.3984 28.8125 43.3984 27.8595 42.8106 27.2719C42.223 26.6841 41.27 26.6839 40.6822 27.2717Z" fill="#003B6A"/>
</g>
<defs>
<clipPath id="clip0_1599_2302">
<rect width="43" height="43" fill="white" transform="translate(14 11)"/>
</clipPath>
</defs>
</svg>
