<svg width="70" height="70" viewBox="0 0 70 70" fill="none" xmlns="http://www.w3.org/2000/svg">
<path d="M54.1623 33.4003C55.824 32.266 56.9243 30.3792 56.9243 28.2524C56.9243 24.7731 54.0276 21.9592 50.446 21.9592C46.8644 21.9592 43.9677 24.7731 43.9677 28.2524C43.9677 30.3792 45.0568 32.266 46.7297 33.4003C45.3038 33.8802 44.0014 34.6219 42.9011 35.5817C41.3854 34.3274 39.6002 33.3676 37.6466 32.8005C40.0156 31.4044 41.61 28.8631 41.61 25.9728C41.61 21.5665 37.9385 18 33.4026 18C28.8667 18 25.1953 21.5774 25.1953 25.9728C25.1953 28.8631 26.7784 31.4044 29.1586 32.8005C27.2275 33.3676 25.4647 34.3165 23.9603 35.549C22.86 34.611 21.58 33.8802 20.1766 33.4112C21.8382 32.2769 22.9385 30.3901 22.9385 28.2633C22.9385 24.784 20.0418 21.9701 16.4602 21.9701C12.8787 21.9701 9.98196 24.784 9.98196 28.2633C9.98196 30.3901 11.071 32.2769 12.7439 33.4112C8.2866 34.9055 5.08675 39.0173 5.08675 43.849V44.5689C5.08675 44.5907 5.1092 44.6125 5.13166 44.6125H18.8629C18.7844 45.2124 18.7394 45.834 18.7394 46.4557V47.1974C18.7394 50.404 21.4116 52.9998 24.7125 52.9998H42.1152C45.4161 52.9998 48.0882 50.404 48.0882 47.1974V46.4557C48.0882 45.834 48.0433 45.2124 47.9647 44.6125H61.7859C61.8083 44.6125 61.8308 44.5907 61.8308 44.5689V43.849C61.8083 39.0064 58.6197 34.8946 54.1623 33.4003ZM45.7641 28.2414C45.7641 25.7329 47.8637 23.6933 50.446 23.6933C53.0284 23.6933 55.1279 25.7329 55.1279 28.2414C55.1279 30.7173 53.0733 32.735 50.5358 32.7896C50.5022 32.7896 50.4797 32.7896 50.446 32.7896C50.4123 32.7896 50.3899 32.7896 50.3562 32.7896C47.8076 32.7459 45.7641 30.7282 45.7641 28.2414ZM26.9692 25.9728C26.9692 22.5372 29.8435 19.7451 33.3802 19.7451C36.9168 19.7451 39.7911 22.5372 39.7911 25.9728C39.7911 29.2885 37.1077 32.0043 33.7507 32.1897C33.6272 32.1897 33.5037 32.1897 33.3802 32.1897C33.2567 32.1897 33.1332 32.1897 33.0097 32.1897C29.6526 32.0043 26.9692 29.2885 26.9692 25.9728ZM11.7447 28.2414C11.7447 25.7329 13.8442 23.6933 16.4266 23.6933C19.0089 23.6933 21.1085 25.7329 21.1085 28.2414C21.1085 30.7173 19.0538 32.735 16.5164 32.7896C16.4827 32.7896 16.4602 32.7896 16.4266 32.7896C16.3929 32.7896 16.3704 32.7896 16.3367 32.7896C13.7993 32.7459 11.7447 30.7282 11.7447 28.2414ZM19.1773 42.8565H6.90561C7.41085 38.2102 11.4528 34.5674 16.3592 34.5346C16.3817 34.5346 16.4041 34.5346 16.4266 34.5346C16.449 34.5346 16.4715 34.5346 16.4939 34.5346C18.8293 34.5456 20.9625 35.3854 22.6129 36.7487C20.9962 38.4502 19.7948 40.5443 19.1773 42.8565ZM46.2694 47.1974C46.2694 49.4333 44.3944 51.2547 42.0927 51.2547H24.69C22.3884 51.2547 20.5134 49.4333 20.5134 47.1974V46.4557C20.5134 39.6826 26.0823 34.142 33.0097 33.9457C33.1332 33.9566 33.2679 33.9566 33.3914 33.9566C33.5149 33.9566 33.6496 33.9566 33.7731 33.9457C40.7005 34.142 46.2694 39.6826 46.2694 46.4557V47.1974ZM47.6055 42.8565C46.9879 40.5552 45.8091 38.4938 44.2035 36.7923C45.8652 35.3963 48.0209 34.5565 50.3787 34.5346C50.4011 34.5346 50.4236 34.5346 50.446 34.5346C50.4685 34.5346 50.4909 34.5346 50.5134 34.5346C55.4198 34.5674 59.4617 38.2102 59.967 42.8565H47.6055Z" fill="#003B6A"/>
</svg>
