<svg width="70" height="70" viewBox="0 0 70 70" fill="none" xmlns="http://www.w3.org/2000/svg">
<path d="M60.5521 13.9617C60.5521 11.8851 60.1979 9.8472 59.4992 7.90426C59.2556 7.22707 58.5049 6.85571 57.8259 7.07743C56.8611 7.39229 55.6475 6.82413 54.3629 6.22257C53.1394 5.64947 51.7524 5 50.2921 5C48.8318 5 47.4447 5.64947 46.221 6.22246C44.9366 6.82392 43.7233 7.39207 42.758 7.07732C42.0788 6.85604 41.3282 7.22707 41.0849 7.90437C40.3863 9.84698 40.032 11.885 40.032 13.9617C40.032 14.2651 40.0422 14.5654 40.0575 14.8637C37.4559 13.804 34.613 13.2178 31.6353 13.2178C19.2853 13.2178 9.23781 23.2653 9.23781 35.6152C9.23781 38.4391 9.76546 41.1413 10.7237 43.6318L9.10235 45.2531C8.48639 45.8692 8.48639 46.8717 9.10235 47.4878L21.1518 59.5371C21.4502 59.8356 21.8471 60 22.2692 60C22.6912 60 23.088 59.8356 23.3866 59.5371L25.7087 57.215C27.5972 57.734 29.5842 58.0127 31.6352 58.0127C33.6862 58.0127 35.6731 57.734 37.5616 57.215L39.8838 59.537C40.1822 59.8355 40.5791 59.9999 41.0012 59.9999C41.4232 59.9999 41.82 59.8355 42.1186 59.537L46.733 54.9226C47.0476 54.608 47.0476 54.0978 46.733 53.7833C46.4182 53.4686 45.9082 53.4686 45.5936 53.7833L41.0012 58.3757L36.7989 54.1734L48.8044 42.1681L53.0065 46.3703L48.252 51.1247C47.9374 51.4393 47.9374 51.9495 48.252 52.264C48.5668 52.5787 49.0768 52.5787 49.3915 52.264L54.1679 47.4876C54.4663 47.1891 54.6307 46.7923 54.6307 46.3702C54.6307 45.948 54.4664 45.5512 54.1679 45.2528L52.5467 43.6316C53.5049 41.1411 54.0325 38.4389 54.0325 35.615C54.0325 32.8968 53.5432 30.2915 52.6521 27.8791C57.7638 24.6217 60.5521 19.744 60.5521 13.9617ZM22.2693 58.3758L10.2638 46.3704L14.4659 42.1683L26.4714 54.1737L22.2693 58.3758ZM30.5722 26.9965H32.1624L33.6633 28.4974C33.9583 28.7924 34.1157 29.1847 34.1065 29.6021C34.0974 30.019 33.9221 30.4045 33.613 30.6875C33.0246 31.226 32.0631 31.1814 31.4698 30.5879L26.1441 25.2621C25.5536 24.6715 25.5536 23.7107 26.144 23.1201C26.3662 22.898 26.6409 22.7607 26.9284 22.7061C26.9263 22.7441 26.9226 22.7815 26.9226 22.8199V23.3468C26.9226 25.3592 28.5598 26.9965 30.5722 26.9965ZM28.5339 23.3468V22.8199C28.5339 22.5641 28.7421 22.356 28.9977 22.356H33.1407C33.6815 22.356 34.1694 22.6432 34.4379 23.0892L32.1418 25.3853H30.5722C29.4483 25.3851 28.5339 24.4708 28.5339 23.3468ZM30.9898 32.3866C31.279 32.6757 31.4364 33.0603 31.4333 33.4694C31.4301 33.8784 31.2665 34.2605 30.9728 34.5452C30.3824 35.1173 29.429 35.1099 28.8479 34.5286L22.8628 28.5434H22.8627C22.5766 28.2574 22.419 27.877 22.419 27.4724C22.419 27.0679 22.5766 26.6875 22.8628 26.4014C23.1487 26.1154 23.5291 25.9579 23.9338 25.9579C24.3383 25.9579 24.7187 26.1154 25.0047 26.4014L30.9898 32.3866ZM26.6371 34.5967C26.9264 34.8859 27.0839 35.2705 27.0807 35.6796C27.0776 36.0886 26.914 36.4706 26.6202 36.7554C26.0298 37.3276 25.0765 37.32 24.4953 36.7388L20.5856 32.8291L19.5814 31.8249C19.2953 31.5388 19.1378 31.1584 19.1378 30.7539C19.1378 30.3493 19.2953 29.9689 19.5814 29.6829C19.8767 29.3876 20.2646 29.24 20.6525 29.24C21.0401 29.24 21.4279 29.3875 21.7231 29.6825L21.7235 29.6829L26.6371 34.5967ZM19.4451 33.9674L22.0635 36.5858C22.3524 36.875 22.5098 37.2593 22.5066 37.668C22.5033 38.077 22.3397 38.4591 22.046 38.7438C21.4555 39.3159 20.5024 39.3085 19.9211 38.7271L17.3042 36.1102C16.7137 35.5196 16.7137 34.5588 17.3041 33.9682C17.5994 33.6729 17.9873 33.5253 18.3752 33.5253C18.7626 33.5256 19.1499 33.6728 19.4451 33.9674ZM20.9926 40.7766C21.7783 40.7766 22.5647 40.4852 23.1675 39.9009C23.6001 39.4817 23.895 38.9598 24.0314 38.3887C24.5054 38.6542 25.0358 38.788 25.5667 38.788C26.3525 38.788 27.1387 38.4966 27.7415 37.9123C28.1989 37.4691 28.5032 36.9114 28.6279 36.3018C29.0365 36.4855 29.4777 36.5779 29.9192 36.5779C30.705 36.5779 31.4913 36.2865 32.0942 35.7022C32.7005 35.1146 33.038 34.3262 33.0445 33.4819C33.0467 33.2024 33.0118 32.9286 32.9433 32.6655C33.5801 32.5987 34.1974 32.337 34.701 31.876C35.3375 31.2933 35.6984 30.4984 35.7174 29.6377C35.7363 28.7766 35.4114 27.967 34.8025 27.3581L33.625 26.1807L36.1968 23.6089C36.7876 23.0185 37.7484 23.0184 38.3388 23.6089C38.9287 24.1988 38.9293 25.1581 38.341 25.7489C38.3403 25.7495 38.3397 25.7501 38.3389 25.7509C38.0243 26.0655 38.0243 26.5757 38.339 26.8902C38.6536 27.2049 39.1637 27.2047 39.4784 26.8902C40.0687 26.2997 41.0297 26.2997 41.6201 26.8902C42.21 27.4801 42.2106 28.4395 41.6222 29.0302C41.6215 29.0308 41.6209 29.0315 41.6202 29.0322H41.6201C41.3055 29.3468 41.3055 29.857 41.6201 30.1715C41.9348 30.4862 42.4449 30.4862 42.7594 30.1715C43.0456 29.8854 43.4259 29.7279 43.8306 29.7279C44.2351 29.7279 44.6155 29.8854 44.9014 30.1714C45.492 30.762 45.492 31.7229 44.9014 32.3134C44.5868 32.628 44.5868 33.1382 44.9014 33.4527C45.2161 33.7674 45.7262 33.7674 46.0408 33.4527C46.3338 33.1598 46.7203 33.0019 47.1374 33.0094C47.5513 33.0163 47.9356 33.1872 48.2193 33.4905C48.7703 34.0795 48.7347 35.0428 48.1398 35.6377L42.3592 41.4183C42.0446 41.7329 42.0446 42.2431 42.3592 42.5576C42.6739 42.8722 43.184 42.8722 43.4986 42.5576L44.9087 41.148L46.2273 42.4666L37.6773 51.0166L33.0535 46.3928C33.7111 46.1625 34.4113 46.0519 35.118 46.0782L36.6512 46.1348C38.0018 46.1857 39.3346 45.8564 40.5094 45.1851C40.8958 44.9644 41.0301 44.4722 40.8092 44.0859C40.5885 43.6995 40.0961 43.5653 39.7101 43.786C38.7965 44.3079 37.7583 44.5636 36.7108 44.5245L35.1776 44.4679C33.1734 44.3927 31.2102 45.1646 29.792 46.5828L25.4758 50.899L17.1911 42.6144L19.4388 40.3667C19.9174 40.6395 20.4547 40.7766 20.9926 40.7766ZM31.6353 56.4014C30.0557 56.4014 28.5181 56.2208 27.0387 55.8851L27.6328 55.2909C27.9313 54.9925 28.0957 54.5956 28.0957 54.1735C28.0957 53.7514 27.9314 53.3546 27.6328 53.0561L26.6152 52.0385L30.9315 47.7222C31.1288 47.5249 31.3402 47.3445 31.5624 47.1803L36.538 52.1558L35.6377 53.0561C35.0219 53.6722 35.0219 54.6747 35.6378 55.2908L36.232 55.885C34.7524 56.2208 33.2148 56.4014 31.6353 56.4014ZM52.4214 35.6152C52.4214 37.9813 52.0233 40.256 51.2916 42.3767L49.9219 41.007C49.6235 40.7084 49.2266 40.5441 48.8045 40.5441C48.3824 40.5441 47.9855 40.7084 47.6871 41.007L47.3668 41.3273L46.0482 40.0087L49.2796 36.7772C50.482 35.5747 50.5345 33.6066 49.3965 32.39C48.8118 31.7648 48.0191 31.4127 47.1647 31.3984C47.0934 31.3971 47.0222 31.3984 46.9514 31.4019C46.9944 30.5492 46.6911 29.682 46.0413 29.0321C45.4509 28.4417 44.6659 28.1165 43.831 28.1165C43.7771 28.1165 43.7233 28.1179 43.67 28.1206C43.713 27.2679 43.4098 26.4006 42.7599 25.7508C42.1095 25.1005 41.2424 24.7976 40.3885 24.8408C40.4322 23.9876 40.1288 23.1197 39.4785 22.4695C38.441 21.432 36.85 21.2783 35.6476 22.0072C35.0707 21.2321 34.1516 20.7447 33.1409 20.7447H28.998C28.5533 20.7447 28.1419 20.8865 27.8037 21.1255C26.8205 20.938 25.7646 21.2211 25.0048 21.9807C24.3549 22.6306 24.0518 23.4978 24.095 24.3507C24.0415 24.348 23.9878 24.3465 23.9339 24.3465C23.0989 24.3465 22.3138 24.6716 21.7236 25.262C21.1331 25.8524 20.8079 26.6375 20.8079 27.4724C20.8079 27.5264 20.8094 27.5801 20.8121 27.6336C19.9594 27.5904 19.0922 27.8935 18.4423 28.5434C17.8518 29.1338 17.5267 29.9189 17.5267 30.7539C17.5267 31.1798 17.6118 31.5925 17.773 31.9732C17.1835 32.0881 16.6208 32.3733 16.165 32.829C14.9463 34.0478 14.9463 36.031 16.165 37.2498L18.2213 39.306L16.052 41.4753L15.5836 41.007C15.2852 40.7084 14.8883 40.5441 14.4662 40.5441C14.0442 40.5441 13.6474 40.7084 13.349 41.007L11.9792 42.3767C11.2477 40.256 10.8496 37.9813 10.8496 35.6152C10.8496 24.1537 20.1742 14.8291 31.6357 14.8291C34.7083 14.8291 37.6261 15.5015 40.253 16.7034C41.098 21.8788 44.3688 26.1414 49.6773 28.8828C49.8699 28.9823 50.0812 29.0321 50.2925 29.0321C50.5037 29.0321 50.715 28.9824 50.9074 28.8829C51.0197 28.8249 51.129 28.7648 51.2393 28.7055C52.0036 30.8684 52.4214 33.1937 52.4214 35.6152ZM50.2921 27.3863C47.6259 25.9878 45.5281 24.1847 44.0556 22.0253C42.4549 19.6777 41.6432 16.9648 41.6432 13.9617C41.6432 12.1545 41.9377 10.3801 42.519 8.68317C44.0019 9.04089 45.4761 8.3506 46.9042 7.68179C48.0282 7.15553 49.1903 6.61133 50.2921 6.61133C51.3938 6.61133 52.5559 7.15553 53.6797 7.68179C55.1079 8.3507 56.5823 9.041 58.065 8.68317C58.6463 10.38 58.9407 12.1546 58.9407 13.9617C58.9407 16.9648 58.129 19.6777 56.5284 22.0253C55.0559 24.1846 52.9582 25.9878 50.2921 27.3863Z" fill="#003B6A"/>
<path d="M55.8518 15.0073C56.2764 14.8744 56.5129 14.4223 56.38 13.9977C55.5429 11.3233 53.0964 9.52649 50.2921 9.52649C46.775 9.52649 43.9135 12.3879 43.9135 15.905C43.9135 19.4221 46.775 22.2835 50.2921 22.2835C52.9017 22.2835 55.2221 20.7203 56.2035 18.3009C56.3707 17.8886 56.1721 17.4188 55.7597 17.2515C55.3472 17.084 54.8775 17.2829 54.7102 17.6952C53.9766 19.5035 52.2423 20.672 50.292 20.672C47.6632 20.672 45.5247 18.5335 45.5247 15.9049C45.5247 13.2763 47.6632 11.1377 50.292 11.1377C52.3881 11.1377 54.2166 12.4805 54.8421 14.479C54.9751 14.9037 55.4276 15.1401 55.8518 15.0073Z" fill="#003B6A"/>
<path d="M52.4031 13.9459L49.9153 16.4339L48.1808 14.6995C47.8661 14.3849 47.356 14.3849 47.0414 14.6995C46.7268 15.0141 46.7268 15.5243 47.0414 15.8388L49.3455 18.1429C49.5029 18.3002 49.7091 18.3789 49.9153 18.3789C50.1214 18.3789 50.3276 18.3003 50.485 18.1429L53.5427 15.0853C53.8573 14.7706 53.8573 14.2605 53.5427 13.9459C53.2279 13.6313 52.7179 13.6313 52.4031 13.9459Z" fill="#003B6A"/>
</svg>
