<svg width="40" height="40" viewBox="0 0 40 40" fill="none" xmlns="http://www.w3.org/2000/svg">
<circle cx="20" cy="20" r="20" fill="#003B6A"/>
<path d="M21.8492 18.321L26.9219 12.4244L27.0887 12.2305H26.8329H25.6169H25.563L25.5279 12.2713L21.1716 17.3349L17.6993 12.2814L17.6643 12.2305H17.6026H13.498H13.2749L13.4013 12.4143L18.7315 20.1717L13.409 26.3583L13.2422 26.5522H13.498H14.7141H14.768L14.8031 26.5114L19.4089 21.1575L23.0808 26.5013L23.1158 26.5522H23.1775H27.2821H27.5052L27.3788 26.3684L21.8492 18.321ZM23.8108 25.4436L20.1532 20.2121L20.1321 20.1815L19.5869 19.4016L15.3776 13.3807H16.9589L20.425 18.3387L20.9702 19.1185L25.3922 25.4436H23.8108Z" fill="white"/>
<path d="M20.425 18.3387L16.9589 13.3807H15.3776L19.5869 19.4016L20.1321 20.1815L20.1532 20.2121L23.8108 25.4436H25.3922L20.9702 19.1185L20.425 18.3387ZM20.425 18.3387L20.5178 18.2737M21.8492 18.321L26.9219 12.4244L27.0887 12.2305H26.8329H25.6169H25.563L25.5279 12.2713L21.1716 17.3349L17.6993 12.2814L17.6643 12.2305H17.6026H13.498H13.2749L13.4013 12.4143L18.7315 20.1717L13.409 26.3583L13.2422 26.5522H13.498H14.7141H14.768L14.8031 26.5114L19.4089 21.1575L23.0808 26.5013L23.1158 26.5522H23.1775H27.2821H27.5052L27.3788 26.3684L21.8492 18.321Z" stroke="white" stroke-width="0.3"/>
</svg>
