<svg width="70" height="70" viewBox="0 0 70 70" fill="none" xmlns="http://www.w3.org/2000/svg">
<circle cx="35" cy="35" r="35" fill="#003B6A"/>
<g clip-path="url(#clip0_301_5362)">
<path d="M15.6297 34.4422C15.6523 33.6688 15.7226 32.8868 15.839 32.1196C15.8906 31.7782 16.2094 31.5438 16.5508 31.5954C16.8922 31.6469 17.1265 31.9657 17.075 32.3071C16.9664 33.0251 16.9 33.7555 16.8789 34.4797C16.8687 34.8188 16.5914 35.086 16.2547 35.086C16.2484 35.086 16.2422 35.086 16.2359 35.086C15.8906 35.0751 15.6195 34.7868 15.6297 34.4422ZM19.4258 25.1774C19.6273 25.1774 19.825 25.0805 19.9453 24.9008C20.4578 24.1376 21.0336 23.4063 21.6586 22.729C21.8922 22.4751 21.8765 22.0797 21.6226 21.8462C21.3687 21.6126 20.9734 21.6282 20.7398 21.8821C20.0719 22.6071 19.4555 23.3883 18.9078 24.2047C18.7156 24.4915 18.7922 24.8797 19.0789 25.0719C19.1844 25.143 19.3055 25.1774 19.4258 25.1774ZM16.9922 37.0938C16.9523 36.7508 16.6422 36.5047 16.2992 36.5454C15.9562 36.5852 15.7109 36.8954 15.7508 37.2383C15.8461 38.0555 15.9961 38.8751 16.1953 39.6751C16.2664 39.9594 16.5211 40.1485 16.8015 40.1485C16.8515 40.1485 16.9023 40.1422 16.9531 40.1297C17.2883 40.0462 17.4914 39.7071 17.4078 39.3719C17.2211 38.6251 17.0812 37.8579 16.9922 37.0938ZM18.1789 26.6891C17.864 26.5469 17.4937 26.6868 17.3523 27.0016C17.0117 27.7555 16.7172 28.5368 16.4765 29.3235C16.3758 29.654 16.5617 30.0032 16.8914 30.104C16.9523 30.1227 17.014 30.1313 17.0742 30.1313C17.3414 30.1313 17.589 29.9579 17.6719 29.6891C17.8969 28.9524 18.1726 28.2212 18.4914 27.5165C18.6336 27.2016 18.4937 26.8313 18.1789 26.6891ZM53.1086 39.8962C52.7781 39.7954 52.4289 39.9813 52.3281 40.311C52.1031 41.0477 51.8273 41.779 51.5086 42.4837C51.3664 42.7985 51.5062 43.1688 51.8211 43.3102C51.9047 43.3477 51.9922 43.3657 52.0781 43.3657C52.3164 43.3657 52.5437 43.229 52.6484 42.9977C52.989 42.2438 53.2836 41.4626 53.5242 40.6758C53.6242 40.3462 53.439 39.9969 53.1086 39.8962ZM53.0078 32.9063C53.0453 33.2243 53.3148 33.4587 53.6281 33.4587C53.6523 33.4587 53.6765 33.4571 53.7015 33.4547C54.0445 33.4149 54.2898 33.104 54.25 32.7618C54.1547 31.9446 54.0047 31.1251 53.8054 30.3251C53.7219 29.9899 53.382 29.7868 53.0476 29.8704C52.7125 29.954 52.5094 30.293 52.5929 30.6282C52.7789 31.3751 52.9187 32.1422 53.0078 32.9063ZM50.9219 44.9282C50.6351 44.736 50.2469 44.8126 50.0547 45.0993C49.543 45.8626 48.9664 46.5938 48.3414 47.2712C48.1078 47.5251 48.1234 47.9204 48.3773 48.154C48.4976 48.2649 48.6492 48.3196 48.8008 48.3196C48.9695 48.3196 49.1375 48.2516 49.2601 48.118C49.9281 47.393 50.5445 46.6118 51.0922 45.7946C51.2851 45.5094 51.2086 45.1212 50.9219 44.9282ZM53.764 34.9149C53.4179 34.904 53.1312 35.1758 53.1211 35.5212C53.1 36.2446 53.0336 36.9758 52.925 37.6938C52.8734 38.0352 53.1078 38.354 53.4492 38.4055C53.4812 38.4102 53.5125 38.4126 53.5437 38.4126C53.8476 38.4126 54.114 38.1907 54.1609 37.8813C54.2773 37.1141 54.3476 36.3321 54.3703 35.5587C54.3804 35.2133 54.1094 34.9251 53.764 34.9149ZM45.3351 49.8883C40.943 52.9352 35.4656 53.8899 30.3086 52.5079C28.082 51.911 25.9844 50.8915 24.1492 49.5219L24.7961 49.6383C25.1359 49.6993 25.4609 49.4735 25.5219 49.1337C25.5828 48.7938 25.357 48.4688 25.0172 48.4079L22.093 47.8837C21.8734 47.8446 21.6492 47.9251 21.5047 48.0954C21.3601 48.2657 21.3187 48.5008 21.3945 48.7102L22.4023 51.5055C22.5195 51.8305 22.8773 51.9985 23.2023 51.8813C23.5273 51.7641 23.6953 51.4063 23.5781 51.0813L23.368 50.4985C25.3383 51.9751 27.5922 53.0743 29.9851 53.7157C31.6414 54.1594 33.3281 54.3782 35.0055 54.3782C38.9109 54.3782 42.7633 53.1946 46.0469 50.9165C46.3304 50.7196 46.4008 50.3305 46.2039 50.0469C46.0086 49.7618 45.6187 49.6915 45.3351 49.8883ZM48.4953 21.9055C48.639 21.7352 48.6812 21.5001 48.6054 21.2907L47.5976 18.4954C47.4804 18.1704 47.1226 18.0024 46.7976 18.1196C46.4726 18.2368 46.3047 18.5946 46.4219 18.9196L46.632 19.5024C44.6617 18.0258 42.4101 16.9274 40.0148 16.2852C34.5023 14.8079 28.6476 15.8282 23.9523 19.0852C23.6687 19.2821 23.5984 19.6712 23.7953 19.9547C23.9922 20.2383 24.3812 20.3087 24.6648 20.1118C29.057 17.0649 34.5344 16.1102 39.6914 17.4922C41.9195 18.0891 44.0148 19.1087 45.8508 20.4782L45.2039 20.3618C44.8648 20.3016 44.539 20.5266 44.4781 20.8665C44.4172 21.2063 44.6429 21.5313 44.9828 21.5922L47.907 22.1165C47.9437 22.1227 47.9804 22.1266 48.0172 22.1266C48.2 22.1274 48.375 22.0477 48.4953 21.9055ZM26.8351 44.1977V45.7587H43.5375V45.0149H28.8508C28.2531 45.0149 27.7672 44.529 27.7672 43.9313V43.6422C27.7672 43.2969 28.0469 43.0172 28.3922 43.0172C28.7375 43.0172 29.0172 43.2969 29.0172 43.6422V43.7649H44.9281V26.5587H42.2773C41.932 26.5587 41.6523 26.279 41.6523 25.9337V23.0016H29.0172V27.8493C29.0172 28.1946 28.7375 28.4743 28.3922 28.4743C28.0469 28.4743 27.7672 28.1946 27.7672 27.8493V24.5688H26.8351V27.2938C26.8351 27.6391 26.5555 27.9188 26.2101 27.9188C25.8648 27.9188 25.5851 27.6391 25.5851 27.2938V24.1813C25.5851 23.7055 25.9726 23.318 26.45 23.318H27.7672V22.8344C27.7672 22.2368 28.2531 21.7508 28.8508 21.7508H42.2773C42.2992 21.7508 42.3211 21.7524 42.3422 21.754C42.343 21.754 42.3437 21.754 42.3453 21.7547C42.3656 21.7571 42.3859 21.7602 42.4062 21.7641C42.407 21.7641 42.4078 21.7649 42.4094 21.7649C42.4297 21.7688 42.4492 21.7743 42.4679 21.7805C42.4703 21.7813 42.4726 21.7821 42.475 21.7829C42.4922 21.7883 42.5094 21.7954 42.5265 21.8024C42.5312 21.8047 42.5351 21.8071 42.5398 21.8087C42.5539 21.8149 42.5679 21.8219 42.582 21.8297C42.5883 21.8329 42.5937 21.8368 42.6 21.8407C42.6117 21.8477 42.6234 21.8547 42.6344 21.8626C42.6414 21.8672 42.6476 21.8727 42.6539 21.8774C42.664 21.8852 42.6734 21.8922 42.6828 21.9008C42.6898 21.9063 42.6961 21.9126 42.7023 21.9188C42.7109 21.9274 42.7195 21.9352 42.7281 21.9438C42.7305 21.9469 42.7336 21.9493 42.7367 21.9524L46.0125 25.5094C46.0164 25.5133 46.0195 25.518 46.0234 25.5227C46.0297 25.5297 46.0359 25.5376 46.0422 25.5454C46.0484 25.5532 46.0539 25.561 46.0594 25.5688C46.0656 25.5774 46.0711 25.5852 46.0765 25.5946C46.0812 25.6024 46.0859 25.6102 46.0906 25.618C46.0961 25.6274 46.1015 25.6368 46.107 25.6469C46.1109 25.654 46.114 25.6618 46.1179 25.6696C46.1226 25.6797 46.1273 25.6907 46.132 25.7008C46.1351 25.7079 46.1375 25.7157 46.1406 25.7235C46.1445 25.7344 46.1484 25.7454 46.1515 25.7571C46.1539 25.7649 46.1555 25.7735 46.1578 25.7813C46.1609 25.7922 46.1633 25.8032 46.1656 25.8141C46.168 25.8243 46.1687 25.8352 46.1703 25.8454C46.1719 25.8547 46.1734 25.8633 46.1742 25.8727C46.1765 25.893 46.1773 25.9133 46.1773 25.9337V43.9313C46.1773 44.529 45.6914 45.0149 45.0937 45.0149H44.7867V46.1454C44.7867 46.6212 44.3992 47.0087 43.9219 47.0087H26.45C25.9734 47.0087 25.5851 46.6212 25.5851 46.1454V44.1977C25.5851 43.8524 25.8648 43.5727 26.2101 43.5727C26.5555 43.5727 26.8351 43.8524 26.8351 44.1977ZM42.9023 25.3087H44.1281L42.9023 23.9782V25.3087ZM38.9039 28.0907H35.7258C35.3805 28.0907 35.1008 28.3704 35.1008 28.7157C35.1008 29.061 35.3805 29.3407 35.7258 29.3407H38.9039C39.2492 29.3407 39.5289 29.061 39.5289 28.7157C39.5289 28.3704 39.2492 28.0907 38.9039 28.0907ZM34.3406 28.7157C34.3406 28.3704 34.0609 28.0907 33.7156 28.0907H30.9359C30.5906 28.0907 30.3109 28.3704 30.3109 28.7157C30.3109 29.061 30.5906 29.3407 30.9359 29.3407H33.7156C34.0609 29.3407 34.3406 29.061 34.3406 28.7157ZM32.4992 32.3735H37.4211C37.7664 32.3735 38.0461 32.0938 38.0461 31.7485C38.0461 31.4032 37.7664 31.1235 37.4211 31.1235H32.4992C32.1539 31.1235 31.8742 31.4032 31.8742 31.7485C31.8742 32.0938 32.1539 32.3735 32.4992 32.3735ZM43.1789 31.7485C43.1789 31.4032 42.8992 31.1235 42.5539 31.1235H39.4211C39.0758 31.1235 38.7961 31.4032 38.7961 31.7485C38.7961 32.0938 39.0758 32.3735 39.4211 32.3735H42.5539C42.8984 32.3735 43.1789 32.0938 43.1789 31.7485ZM33.4219 34.1563C33.0765 34.1563 32.7969 34.436 32.7969 34.7813C32.7969 35.1266 33.0765 35.4063 33.4219 35.4063H42.2453C42.5906 35.4063 42.8703 35.1266 42.8703 34.7813C42.8703 34.436 42.5906 34.1563 42.2453 34.1563H33.4219ZM33.139 38.4391H42.1422C42.4875 38.4391 42.7672 38.1594 42.7672 37.8141C42.7672 37.4688 42.4875 37.1891 42.1422 37.1891H33.139C32.7937 37.1891 32.514 37.4688 32.514 37.8141C32.514 38.1594 32.7937 38.4391 33.139 38.4391ZM31.0922 40.8469C31.0922 41.1922 31.3719 41.4719 31.7172 41.4719H41.7304C42.0758 41.4719 42.3554 41.1922 42.3554 40.8469C42.3554 40.5016 42.0758 40.2219 41.7304 40.2219H31.7172C31.3726 40.2219 31.0922 40.5016 31.0922 40.8469ZM25.814 42.4915C22.0945 42.4915 19.068 39.4657 19.068 35.7454C19.068 32.0258 22.0937 28.9993 25.814 28.9993C29.5336 28.9993 32.5601 32.0251 32.5601 35.7454C32.5601 39.4657 29.5336 42.4915 25.814 42.4915ZM25.814 41.2415C28.8445 41.2415 31.3101 38.7758 31.3101 35.7454C31.3101 32.7149 28.8445 30.2493 25.814 30.2493C22.7836 30.2493 20.318 32.7149 20.318 35.7454C20.318 38.7758 22.7836 41.2415 25.814 41.2415ZM28.568 33.5071C28.3078 33.2805 27.9133 33.3071 27.6859 33.5672L25.0437 36.5977L23.9117 35.4657C23.6672 35.2219 23.2719 35.2219 23.0281 35.4657C22.7844 35.7094 22.7844 36.1055 23.0281 36.3493L24.6328 37.954C24.75 38.0712 24.9094 38.1368 25.075 38.1368H25.0961C25.2695 38.1305 25.432 38.0532 25.5461 37.9227L28.6281 34.3876C28.8555 34.129 28.8281 33.7344 28.568 33.5071Z" fill="white"/>
</g>
<defs>
<clipPath id="clip0_301_5362">
<rect width="40" height="40" fill="white" transform="translate(15 15)"/>
</clipPath>
</defs>
</svg>
