<svg width="43" height="43" viewBox="0 0 43 43" fill="none" xmlns="http://www.w3.org/2000/svg">
<path d="M0 27.4721C0 36.048 6.95203 42.9999 15.5278 42.9999C24.1037 42.9999 31.0556 36.048 31.0556 27.4721C31.0556 18.8962 24.1037 11.9443 15.5278 11.9443C6.95203 11.9443 0 18.8962 0 27.4721Z" fill="#003B6A"/>
<path d="M15.0273 6.24188C14.7363 6.63132 15.0431 7.16667 15.5292 7.16667C26.7436 7.16667 35.8348 16.2578 35.8348 27.4722C35.8348 27.9584 36.3701 28.2651 36.7595 27.9741C40.5485 25.1428 43.0015 20.6216 43.0015 15.5278C43.0015 6.95203 36.0495 0 27.4737 0C22.3798 0 17.8586 2.45287 15.0273 6.24188Z" fill="#B31942"/>
</svg>
