<svg width="64" height="64" viewBox="0 0 64 64" fill="none" xmlns="http://www.w3.org/2000/svg">
<path fill-rule="evenodd" clip-rule="evenodd" d="M40.5936 17.5559C42.7589 18.1906 45.1902 18.5236 47.2035 19.1331C47.8493 22.1116 46.868 29.6645 45.9119 32.7435C44.8103 36.3189 43.1071 39.7183 40.7582 42.59C38.5042 45.361 35.7817 47.7174 32.7933 49.6465C27.9688 52.7569 23.9547 53.7246 22.6758 54.5289C23.3849 55.7542 27.8105 58.1168 29.3491 58.808C31.0902 59.5935 31.6727 60.203 33.4708 59.4552C34.8067 58.9023 35.9084 58.3933 37.1683 57.6895C41.6193 55.2012 45.9752 51.3116 48.951 47.221C57.1881 35.9104 57.0298 24.1726 56.6246 10.7508C54.2314 10.468 51.8444 10.4052 49.4448 10.0533C41.1064 8.82169 45.5764 7.0497 39.0804 12.1583C37.6115 13.3145 36.1236 14.2068 34.5598 15.1807L40.5936 17.5559Z" fill="#003B6A"/>
<path fill-rule="evenodd" clip-rule="evenodd" d="M7.70026 10.7415C7.47233 23.3214 6.9595 34.8079 14.2406 45.6283C15.3549 47.2872 19.2044 52.2135 20.8379 52.955C22.6486 52.5968 29.2269 49.876 30.1766 48.6444C28.2836 47.061 26.1436 45.7037 24.5417 43.7683C18.4509 36.4102 16.4692 28.8133 17.0644 19.0988C21.8129 18.3887 26.1625 16.9561 30.3919 15.0144C33.2663 13.6886 38.9709 10.3645 40.94 8.027C40.6361 7.75681 34.6466 5.16795 33.5069 4.53958C31.5505 3.47137 31.7215 4.16885 29.7904 5.07998C20.23 9.57278 18.4573 9.6042 7.70026 10.7415Z" fill="#B31942"/>
<path fill-rule="evenodd" clip-rule="evenodd" d="M22.8797 24.9281L22.8418 23.043L32.016 17.0547L41.1964 23.043L41.1584 24.9281L32.0159 24.7899L22.8797 24.9281ZM22.4492 36.9487H41.589V38.8778H22.4492V36.9487ZM36.9544 34.3661H37.9674V27.3724H36.9544V25.6193H37.9674H39.449H40.4556V27.3724H39.449V34.3661H40.4556V36.1192H36.9544V34.3661ZM32.4971 34.5232H33.5038V27.5232H32.4971V25.7764H33.5038H34.9917H35.9984V27.5232H34.9917V34.5232H35.9984V36.2701H32.4971V34.5232ZM28.0398 34.5986H29.0465V27.5986H28.0398V25.8518H29.0465H30.528H31.5411V27.5986H30.528V34.5986H31.5411V36.3455H28.0398V34.5986ZM23.5825 34.4478H24.5892V27.4478H23.5825V25.6947H24.5892H26.0708H27.0775V27.4478H26.0708V34.4478H27.0775V36.1947H23.5825V34.4478Z" fill="#003B6A"/>
</svg>
