<svg width="10" height="10" viewBox="0 0 10 10" fill="none" xmlns="http://www.w3.org/2000/svg">
<path d="M9.91211 1.61914L8.38086 0.0878906C8.26367 -0.0292969 8.07367 -0.0292969 7.95633 0.0878906L5.00008 3.04445L2.04367 0.0880469C1.92648 -0.0291406 1.73648 -0.0291406 1.61914 0.0880469L0.0878906 1.6193C-0.0292969 1.73648 -0.0292969 1.92648 0.0878906 2.04383L3.04445 5.00008L0.0880469 7.95648C-0.0291406 8.07367 -0.0291406 8.26367 0.0880469 8.38102L1.6193 9.91227C1.73648 10.0295 1.92648 10.0295 2.04383 9.91227L5.00008 6.9557L7.95648 9.91211C8.07367 10.0293 8.26367 10.0293 8.38102 9.91211L9.91227 8.38086C10.0295 8.26367 10.0295 8.07367 9.91227 7.95633L6.9557 5.00008L9.91211 2.04367C10.0295 1.92664 10.0295 1.73648 9.91211 1.61914Z" fill="#B31840"/>
</svg>
