<svg width="15" height="15" viewBox="0 0 15 15" fill="none" xmlns="http://www.w3.org/2000/svg">
<path d="M5.72933 14.5832C5.30433 14.5832 5.021 14.2998 5.021 13.8748V1.12484C5.021 0.699837 5.30433 0.416504 5.72933 0.416504C6.15433 0.416504 6.43766 0.699837 6.43766 1.12484V13.8748C6.43766 14.2998 6.15433 14.5832 5.72933 14.5832Z" fill="#B31942"/>
<path d="M1.47933 6.08317C1.26683 6.08317 1.12516 6.01234 0.983496 5.87067C0.700163 5.58734 0.700163 5.16234 0.983496 4.879L5.2335 0.629004C5.51683 0.345671 5.94183 0.345671 6.22516 0.629004C6.5085 0.912337 6.5085 1.33734 6.22516 1.62067L1.97516 5.87067C1.8335 6.01234 1.69183 6.08317 1.47933 6.08317Z" fill="#B31942"/>
<path d="M9.27083 14.5832C8.84583 14.5832 8.5625 14.2998 8.5625 13.8748V1.12484C8.5625 0.699837 8.84583 0.416504 9.27083 0.416504C9.69583 0.416504 9.97917 0.699837 9.97917 1.12484V13.8748C9.97917 14.2998 9.69583 14.5832 9.27083 14.5832Z" fill="#B31942"/>
<path d="M9.27083 14.5832C9.05833 14.5832 8.91667 14.5123 8.775 14.3707C8.49167 14.0873 8.49167 13.6623 8.775 13.379L13.025 9.129C13.3083 8.84567 13.7333 8.84567 14.0167 9.129C14.3 9.41234 14.3 9.83734 14.0167 10.1207L9.76667 14.3707C9.625 14.5832 9.48333 14.5832 9.27083 14.5832Z" fill="#B31942"/>
</svg>
