<svg width="21" height="21" viewBox="0 0 21 21" fill="none" xmlns="http://www.w3.org/2000/svg">
<path d="M10.251 20H10.25C8.9317 20 7.69938 19.7504 6.54799 19.2539C5.38705 18.7532 4.38213 18.0757 3.52869 17.2216C2.6751 16.3674 1.99777 15.3623 1.49709 14.2019C1.00059 13.0512 0.750637 11.8188 0.750001 10.4998C0.749366 9.18101 0.999257 7.94897 1.49691 6.79851C1.999 5.63778 2.6765 4.63251 3.52895 3.77817C4.38083 2.92438 5.38549 2.24726 6.5476 1.7473C7.7007 1.25122 8.93334 1.00128 10.2505 1C11.567 0.998735 12.799 1.24855 13.9516 1.74694C15.1143 2.24973 16.1195 2.92719 16.9716 3.77869C17.8236 4.63005 18.5013 5.63502 19.004 6.79836C19.5024 7.95163 19.7519 9.18358 19.75 10.4993C19.7481 11.8159 19.4981 13.0487 19.0026 14.2027C18.5033 15.3653 17.8263 16.3697 16.9721 17.2208C16.1169 18.0728 15.1113 18.7508 13.951 19.2543C12.8016 19.753 11.57 20.0025 10.251 20ZM10.7344 15.7835C10.5886 15.9293 10.4208 16 10.2 16C9.98254 16 9.81374 15.93 9.66461 15.7825C9.51859 15.6381 9.44874 15.4723 9.44999 15.2529C9.45127 15.0289 9.52305 14.8605 9.66704 14.7161C9.81025 14.5725 9.97778 14.5009 10.2019 14.5C10.4235 14.4992 10.5896 14.5695 10.733 14.7141C10.8787 14.8611 10.9496 15.0299 10.95 15.251C10.9504 15.4704 10.8803 15.6376 10.7344 15.7835ZM10.6682 12.15H9.81075C9.83748 11.5711 9.91104 11.221 9.99721 11.0486C10.0496 10.9438 10.1672 10.7779 10.3813 10.5438C10.5894 10.3165 10.8695 10.0454 11.2259 9.7293C11.5551 9.4548 11.8353 9.15224 12.0625 8.82055C12.3158 8.45077 12.45 8.04057 12.45 7.60001C12.45 7.10926 12.2581 6.6719 11.9192 6.30083C11.5281 5.87255 10.9727 5.70001 10.35 5.70001C9.65232 5.70001 9.04399 5.90736 8.62907 6.4047C8.44965 6.61976 8.29708 6.83684 8.17859 7.05569L7.45466 6.7705C7.66593 6.34437 7.96627 5.96544 8.36084 5.63181C8.84274 5.22434 9.4904 5.00001 10.35 5.00001C11.1886 5.00001 11.8909 5.22264 12.4797 5.65352C13.0199 6.04873 13.3 6.60723 13.3 7.4C13.3 7.87163 13.1935 8.24509 13.0034 8.54315C12.7789 8.89522 12.4642 9.27812 12.0514 9.69147C11.4715 10.2394 11.0428 10.7373 10.8731 11.166C10.7622 11.4462 10.6972 11.7777 10.6682 12.15ZM10.25 19C12.6131 19 14.6328 18.1743 16.2786 16.5286C17.9243 14.8828 18.75 12.8631 18.75 10.5C18.75 8.13687 17.9243 6.11718 16.2786 4.47145C14.6328 2.82572 12.6131 2.00001 10.25 2.00001C7.88686 2.00001 5.86718 2.82572 4.22145 4.47145C2.57572 6.11718 1.75 8.13687 1.75 10.5C1.75 12.8631 2.57572 14.8828 4.22145 16.5286C5.86718 18.1743 7.88686 19 10.25 19Z" fill="#003B6A" stroke="#033963"/>
</svg>
