<svg width="29" height="29" viewBox="0 0 29 29" fill="none" xmlns="http://www.w3.org/2000/svg">
<circle cx="14.5" cy="14.5" r="14.5" fill="#EAEAEA"/>
<path d="M9.42663 15.8004C8.65167 15.8004 8 15.1664 8 14.409C8 13.6341 8.65167 13 9.42663 13C10.2016 13 10.8533 13.6341 10.8533 14.409C10.8533 15.1664 10.2016 15.8004 9.42663 15.8004Z" fill="#757575"/>
<path d="M14.6522 15.8004C13.8773 15.8004 13.2256 15.1664 13.2256 14.409C13.2256 13.6341 13.8773 13 14.6522 13C15.4272 13 16.0789 13.6341 16.0789 14.409C16.0789 15.1664 15.4272 15.8004 14.6522 15.8004Z" fill="#757575"/>
<path d="M19.8778 15.8004C19.1029 15.8004 18.4512 15.1664 18.4512 14.409C18.4512 13.6341 19.1029 13 19.8778 13C20.6528 13 21.3045 13.6341 21.3045 14.409C21.3045 15.1664 20.6528 15.8004 19.8778 15.8004Z" fill="#757575"/>
</svg>
