<svg width="32" height="32" viewBox="0 0 32 32" fill="none" xmlns="http://www.w3.org/2000/svg">
<circle cx="16" cy="16" r="15.5" stroke="#767676" stroke-opacity="0.4"/>
<path d="M20.6055 15.1388C20.7333 15.0084 20.9333 14.9966 21.0743 15.1033L21.1147 15.1388L24 18.0821L26.8853 15.1388C27.0131 15.0084 27.2132 14.9966 27.3541 15.1033L27.3945 15.1388C27.5224 15.2692 27.534 15.4733 27.4294 15.6171L27.3945 15.6583L24.2546 18.8612C24.1268 18.9916 23.9267 19.0034 23.7858 18.8967L23.7454 18.8612L20.6055 15.6583C20.4648 15.5148 20.4648 15.2823 20.6055 15.1388Z" fill="#003B6A" stroke="#003B6A"/>
<g clip-path="url(#clip0_1669_2352)">
<path d="M7.73893 12.2746C7.73893 10.3232 9.42597 8.73535 11.4993 8.73535C13.5727 8.73535 15.2598 10.3232 15.2598 12.2746C15.2598 14.226 13.5727 15.8138 11.4993 15.8138C9.42597 15.8138 7.73893 14.226 7.73893 12.2746ZM13.8743 16.9314H9.12435C6.61477 16.9314 4.57227 18.8538 4.57227 21.2157C4.57227 22.3461 5.54839 23.2648 6.74935 23.2648H16.2493C17.4503 23.2648 18.4264 22.3461 18.4264 21.2157C18.4264 18.8538 16.3839 16.9314 13.8743 16.9314Z" fill="#003B6A"/>
</g>
<defs>
<clipPath id="clip0_1669_2352">
<rect width="15" height="16" fill="white" transform="translate(4 8)"/>
</clipPath>
</defs>
</svg>
