<svg width="32" height="32" viewBox="0 0 32 32" fill="none" xmlns="http://www.w3.org/2000/svg">
<mask id="mask0_2_34" style="mask-type:luminance" maskUnits="userSpaceOnUse" x="8" y="8" width="15" height="16">
<path d="M23 8H8V24H23V8Z" fill="white"/>
</mask>
<g mask="url(#mask0_2_34)">
<path d="M11.7389 12.2746C11.7389 10.3232 13.426 8.73535 15.4993 8.73535C17.5727 8.73535 19.2598 10.3232 19.2598 12.2746C19.2598 14.226 17.5727 15.8138 15.4993 15.8138C13.426 15.8138 11.7389 14.226 11.7389 12.2746ZM17.8743 16.9314H13.1243C10.6148 16.9314 8.57227 18.8538 8.57227 21.2157C8.57227 22.3461 9.54839 23.2648 10.7493 23.2648H20.2493C21.4503 23.2648 22.4264 22.3461 22.4264 21.2157C22.4264 18.8538 20.3839 16.9314 17.8743 16.9314Z" fill="#003B6A"/>
</g>
</svg>
