<svg width="14" height="3" viewBox="0 0 14 3" fill="none" xmlns="http://www.w3.org/2000/svg">
<path d="M1.42663 2.80043C0.651673 2.80043 0 2.16637 0 1.40902C0 0.63406 0.651673 0 1.42663 0C2.2016 0 2.85327 0.63406 2.85327 1.40902C2.85327 2.16637 2.2016 2.80043 1.42663 2.80043Z" fill="#757575"/>
<path d="M6.65223 2.80043C5.87726 2.80043 5.22559 2.16637 5.22559 1.40902C5.22559 0.63406 5.87726 0 6.65223 0C7.42719 0 8.07886 0.63406 8.07886 1.40902C8.07886 2.16637 7.42719 2.80043 6.65223 2.80043Z" fill="#757575"/>
<path d="M11.8778 2.80043C11.1029 2.80043 10.4512 2.16637 10.4512 1.40902C10.4512 0.63406 11.1029 0 11.8778 0C12.6528 0 13.3045 0.63406 13.3045 1.40902C13.3045 2.16637 12.6528 2.80043 11.8778 2.80043Z" fill="#757575"/>
</svg>
