<svg width="19" height="19" viewBox="0 0 19 19" fill="none" xmlns="http://www.w3.org/2000/svg">
<g clip-path="url(#clip0_3222_5855)">
<path d="M7.01611 2.3227L0.383296 13.8111C0.140044 14.2324 0.000178337 14.7209 0.000178337 15.2423C0.000178337 16.8258 1.28387 18.1095 2.8674 18.1095H9.50018L11.7939 9.4981L9.50018 0.886719C8.43811 0.886719 7.5116 1.46462 7.01611 2.3227Z" fill="#B31942"/>
<path d="M11.9841 2.3227L18.6169 13.8111C18.8601 14.2324 19 14.7209 19 15.2423C19 16.8258 17.7163 18.1095 16.1328 18.1095H9.5V0.886719C10.5621 0.886719 11.4886 1.46462 11.9841 2.3227Z" fill="#B31942"/>
<path d="M1.37628 14.3852L8.00906 2.89684C8.30801 2.37883 8.85697 2.05197 9.45068 2.03516L3.77781 16.9633H2.86718C1.91871 16.9633 1.14687 16.1915 1.14687 15.243C1.14687 14.9418 1.22639 14.6451 1.37628 14.3852Z" fill="#F2D8DF"/>
<path d="M2.49171 14.3863C2.36213 14.6463 2.2937 14.9429 2.2937 15.2442C2.2937 16.1926 2.95925 16.9645 3.77778 16.9645H16.1327C17.0812 16.9645 17.853 16.1926 17.853 15.2442C17.853 14.9429 17.7735 14.6463 17.6237 14.3863L10.9909 2.89799C10.6835 2.36584 10.1123 2.03516 9.49993 2.03516C9.48349 2.03516 9.46705 2.03553 9.45061 2.03631C8.94102 2.0562 8.4704 2.38228 8.2139 2.89799L2.49171 14.3863Z" fill="#F2D8DF"/>
<path d="M9.5 13.1406V15.0521C8.97204 15.0521 8.54425 14.6243 8.54425 14.0963C8.54425 13.5684 8.97204 13.1406 9.5 13.1406Z" fill="#B31942"/>
<path d="M9.49981 13.1406C9.39431 13.1406 9.30866 13.5684 9.30866 14.0964C9.30866 14.6243 9.39431 15.0521 9.49981 15.0521C10.0278 15.0521 10.4556 14.6243 10.4556 14.0964C10.4556 13.5684 10.0278 13.1406 9.49981 13.1406Z" fill="#B31942"/>
<path d="M9.5 4.92188V11.9943C8.97204 11.9943 8.54425 11.5662 8.54425 11.0386V5.87763C8.54425 5.34967 8.97204 4.92188 9.5 4.92188Z" fill="#B31942"/>
<path d="M9.49981 4.92188C9.39431 4.92188 9.30866 5.34967 9.30866 5.87763V11.0386C9.30866 11.5661 9.39431 11.9943 9.49981 11.9943C10.0278 11.9943 10.4556 11.5662 10.4556 11.0386V5.87763C10.4556 5.34967 10.0278 4.92188 9.49981 4.92188Z" fill="#B31942"/>
</g>
<defs>
<clipPath id="clip0_3222_5855">
<rect width="19" height="19" fill="white" transform="matrix(-1 0 0 1 19 0)"/>
</clipPath>
</defs>
</svg>
