<svg width="19" height="19" viewBox="0 0 19 19" fill="none" xmlns="http://www.w3.org/2000/svg">
<g clip-path="url(#clip0_2803_6743)">
<path d="M7.01514 2.32466L0.382319 13.8131C0.139068 14.2344 -0.000798225 14.7228 -0.000798225 15.2442C-0.000798225 16.8277 1.28289 18.1115 2.86642 18.1115H9.4992L11.793 9.50005L9.4992 0.888672C8.43713 0.888672 7.51062 1.46658 7.01514 2.32466Z" fill="#3B4145"/>
<path d="M11.9841 2.32466L18.6169 13.8131C18.8601 14.2344 19 14.7228 19 15.2442C19 16.8277 17.7163 18.1115 16.1328 18.1115H9.5V0.888672C10.5621 0.888672 11.4886 1.46658 11.9841 2.32466Z" fill="#525A61"/>
<path d="M1.37677 14.3871L8.00955 2.89879C8.3085 2.38078 8.85746 2.05392 9.45117 2.03711L3.7783 16.9653H2.86767C1.91919 16.9653 1.14736 16.1935 1.14736 15.245C1.14736 14.9437 1.22688 14.6471 1.37677 14.3871Z" fill="#FFB751"/>
<path d="M2.4922 14.3863C2.36262 14.6463 2.29419 14.9429 2.29419 15.2442C2.29419 16.1926 2.95974 16.9645 3.77826 16.9645H16.1332C17.0817 16.9645 17.8535 16.1926 17.8535 15.2442C17.8535 14.9429 17.774 14.6463 17.6241 14.3863L10.9914 2.89799C10.684 2.36584 10.1128 2.03516 9.50042 2.03516C9.48398 2.03516 9.46754 2.03553 9.4511 2.03631C8.94151 2.0562 8.47089 2.38228 8.21439 2.89799L2.4922 14.3863Z" fill="#FFD764"/>
<path d="M9.5 13.1406V15.0521C8.97204 15.0521 8.54425 14.6243 8.54425 14.0963C8.54425 13.5684 8.97204 13.1406 9.5 13.1406Z" fill="#3B4145"/>
<path d="M9.49933 13.1406C9.39382 13.1406 9.30818 13.5684 9.30818 14.0964C9.30818 14.6243 9.39382 15.0521 9.49933 15.0521C10.0273 15.0521 10.4551 14.6243 10.4551 14.0964C10.4551 13.5684 10.0273 13.1406 9.49933 13.1406Z" fill="#525A61"/>
<path d="M9.5 4.92188V11.9943C8.97204 11.9943 8.54425 11.5662 8.54425 11.0386V5.87763C8.54425 5.34967 8.97204 4.92188 9.5 4.92188Z" fill="#3B4145"/>
<path d="M9.49933 4.92188C9.39382 4.92188 9.30818 5.34967 9.30818 5.87763V11.0386C9.30818 11.5661 9.39382 11.9943 9.49933 11.9943C10.0273 11.9943 10.4551 11.5662 10.4551 11.0386V5.87763C10.4551 5.34967 10.0273 4.92188 9.49933 4.92188Z" fill="#525A61"/>
</g>
<defs>
<clipPath id="clip0_2803_6743">
<rect width="19" height="19" fill="white" transform="matrix(-1 0 0 1 19 0)"/>
</clipPath>
</defs>
</svg>
